<svg xmlns="http://www.w3.org/2000/svg" width="147.004" height="102" viewBox="0 0 147.004 102"><defs><style>.a{fill:#76b900;}.b,.d{fill:none;}.b{stroke:#76b900;stroke-width:2px;}.c{stroke:none;}</style></defs><g transform="translate(-1201 -2712)"><g transform="translate(1187.148 2741)"><g transform="translate(42.544 0)"><path class="a" d="M47.062,179.141a4.358,4.358,0,0,0-3.2,1.316,4.307,4.307,0,0,0-1.316,3.159v18.864A4.493,4.493,0,0,0,47.062,207a4.291,4.291,0,0,0,3.181-1.316,4.4,4.4,0,0,0,1.294-3.2V183.615a4.493,4.493,0,0,0-4.475-4.474Z" transform="translate(-42.544 -155.495)"/><path class="a" d="M152.92,6.712,156.035.966a.578.578,0,0,0-.219-.877.608.608,0,0,0-.877.263l-3.158,5.792a22,22,0,0,0-17.636,0L130.986.351a.608.608,0,0,0-.877-.263.577.577,0,0,0-.219.877L133,6.712a19.235,19.235,0,0,0-7.546,6.735,17.01,17.01,0,0,0-2.808,9.455H163.23a17.014,17.014,0,0,0-2.808-9.455A19.316,19.316,0,0,0,152.92,6.712Zm-18.009,8.358a1.645,1.645,0,0,1-1.207.506,1.57,1.57,0,0,1-1.184-.506,1.749,1.749,0,0,1,0-2.412,1.576,1.576,0,0,1,1.184-.5,1.705,1.705,0,0,1,1.207,2.916Zm18.491,0a1.573,1.573,0,0,1-1.184.506,1.711,1.711,0,0,1,0-3.422,1.577,1.577,0,0,1,1.184.5,1.749,1.749,0,0,1,0,2.412Z" transform="translate(-112.077 0)"/><path class="a" d="M123.971,214.668a4.791,4.791,0,0,0,4.825,4.825h3.247l.044,9.96a4.36,4.36,0,0,0,1.316,3.2,4.308,4.308,0,0,0,3.159,1.316,4.493,4.493,0,0,0,4.518-4.519v-9.959h6.054v9.959a4.518,4.518,0,1,0,9.036,0v-9.959h3.29a4.791,4.791,0,0,0,4.782-4.825V185.45H123.971Z" transform="translate(-113.223 -160.971)"/><path class="a" d="M446.851,179.141a4.347,4.347,0,0,0-3.159,1.294,4.29,4.29,0,0,0-1.316,3.18v18.864a4.357,4.357,0,0,0,1.316,3.2A4.309,4.309,0,0,0,446.851,207a4.493,4.493,0,0,0,4.518-4.519V183.615a4.289,4.289,0,0,0-1.316-3.18A4.4,4.4,0,0,0,446.851,179.141Z" transform="translate(-389.6 -155.495)"/></g></g><g class="b" transform="translate(1203 2714)"><rect class="c" width="110" height="72" rx="1"/><rect class="d" x="-1" y="-1" width="112" height="74" rx="2"/></g><path class="a" d="M123.2,29.3H106.609a6.2,6.2,0,0,0-6.209,6.209h0V68.691a6.234,6.234,0,0,0,6.209,6.209H123.2a6.2,6.2,0,0,0,6.209-6.209h0V35.509A6.169,6.169,0,0,0,123.2,29.3Zm-2.6,42.5H109.255V69.709H120.6Zm6.209-4.733H103V32.455h23.818Z" transform="translate(1218.596 2722.7)"/></g></svg>