<svg xmlns="http://www.w3.org/2000/svg" width="145" height="100" viewBox="0 0 145 100">
  <g id="cb-icon" transform="translate(-1415 -2687)">
    <rect id="Rectangle_95" data-name="Rectangle 95" width="145" height="100" transform="translate(1415 2687)" fill="rgba(255,255,255,0)"/>
    <g id="XMLID_16_" transform="translate(1446 2695.988)">
      <path id="XMLID_17_" d="M95.506,111.028a15.509,15.509,0,1,0,15.51-15.51A15.527,15.527,0,0,0,95.506,111.028Z" transform="translate(-69.516 -69.516)" fill="#76b900"/>
      <path id="XMLID_18_" d="M101.041,21.039a.68.68,0,0,0-.006-.684A41.477,41.477,0,0,0,65.329.012,41.319,41.319,0,0,0,32.887,15.634a.68.68,0,0,0-.058.765L44.512,36.633a.68.68,0,0,0,.589.34.7.7,0,0,0,.092-.006.68.68,0,0,0,.567-.5A20.207,20.207,0,0,1,65.329,21.3c.572,0,1.163.026,1.757.077.019,0,.039,0,.058,0H100.45A.68.68,0,0,0,101.041,21.039Z" transform="translate(-23.829 0)" fill="#76b900"/>
      <path id="XMLID_19_" d="M47.632,116.871a.679.679,0,0,0-.72-.238A20.209,20.209,0,0,1,23.2,105.725c-.008-.017-.017-.034-.027-.051L6.507,76.809a.679.679,0,0,0-.589-.34h0a.68.68,0,0,0-.589.346A41.511,41.511,0,0,0,35.308,138.2a.666.666,0,0,0,.1.007.681.681,0,0,0,.589-.34l11.686-20.241A.681.681,0,0,0,47.632,116.871Z" transform="translate(0 -55.651)" fill="#76b900"/>
      <path id="XMLID_20_" d="M189.929,95.226h-23.4a.68.68,0,0,0-.476,1.166,20.165,20.165,0,0,1,2.461,25.934c-.011.016-.021.032-.03.048l-16.694,28.914a.68.68,0,0,0,.589,1.02h.008a41.519,41.519,0,0,0,38.172-56.651A.68.68,0,0,0,189.929,95.226Z" transform="translate(-110.419 -69.303)" fill="#76b900"/>
    </g>
  </g>
</svg>
