<svg xmlns="http://www.w3.org/2000/svg" xmlns:xlink="http://www.w3.org/1999/xlink" width="36" height="36" viewBox="0 0 36 36">
  <defs>
    <clipPath id="clip-path">
      <circle id="Ellipse_3" data-name="Ellipse 3" cx="18" cy="18" r="18" transform="translate(1849 18)" fill="#fff"/>
    </clipPath>
  </defs>
  <g id="ic_account_white" transform="translate(-1849 -18)" clip-path="url(#clip-path)">
    <g id="user" transform="translate(1846 15)">
      <path id="Path_100" data-name="Path 100" d="M0,0H42V42H0Z" fill="none"/>
      <path id="Path_101" data-name="Path 101" d="M21.667,4.167a17.5,17.5,0,1,0,17.5,17.5A17.506,17.506,0,0,0,21.667,4.167Zm-8.627,28.49c.752-1.575,5.337-3.115,8.627-3.115s7.892,1.54,8.627,3.115a13.869,13.869,0,0,1-17.255,0ZM32.8,30.119c-2.5-3.045-8.575-4.078-11.13-4.078s-8.627,1.032-11.13,4.078a14,14,0,1,1,22.26,0ZM21.667,11.167a6.125,6.125,0,1,0,6.125,6.125A6.109,6.109,0,0,0,21.667,11.167Zm0,8.75a2.625,2.625,0,1,1,2.625-2.625A2.621,2.621,0,0,1,21.667,19.917Z" transform="translate(-0.667 -0.667)" fill="#fff"/>
    </g>
  </g>
</svg>
