<svg xmlns="http://www.w3.org/2000/svg" width="70" height="70" viewBox="0 0 70 70"><defs><style>.a{fill:none;}.b{fill:#76b900;}</style></defs><g transform="translate(-5 -5)"><path class="a" d="M40,11.3A28.7,28.7,0,1,0,68.7,40,28.7,28.7,0,0,0,40,11.3ZM35.37,54.2,23.64,42.48l4.95-5,6.78,6.78,16-16,5,4.95Z"/><path class="b" d="M40,5A35,35,0,1,0,75,40,35,35,0,0,0,40,5Zm0,63.7A28.7,28.7,0,1,1,68.7,40,28.7,28.7,0,0,1,40,68.7Z"/><path class="b" d="M35.37,44.3l-6.78-6.78-4.95,4.96L35.37,54.2,56.35,33.22l-4.94-4.95Z"/></g></svg>