<svg xmlns="http://www.w3.org/2000/svg" width="75" height="75" viewBox="0 0 75 75"><defs><style>.a{fill:none;}.b{fill:#76b900;}</style></defs><path class="a" d="M39.86,9A31.13,31.13,0,0,0,21.24,65c.31-11.54,8.53-20.79,18.62-20.79S58.17,53.5,58.48,65A31.13,31.13,0,0,0,39.86,9Zm0,31.83a11.915,11.915,0,1,0,0-.05Z" transform="translate(-2.49 -2.47)"/><circle class="b" cx="11.74" cy="11.74" r="11.74" transform="matrix(0.526, -0.851, 0.851, 0.526, 21.212, 30.381)"/><path class="b" d="M40,2.47A37.5,37.5,0,1,0,77.49,40,37.5,37.5,0,0,0,40,2.47ZM58.38,64.6C58.07,53.2,50,44.07,40,44.07S21.91,53.2,21.6,64.6a30.75,30.75,0,1,1,36.78,0Z" transform="translate(-2.49 -2.47)"/></svg>