<svg xmlns="http://www.w3.org/2000/svg" width="40" height="28" viewBox="0 0 40 28">
  <g id="JCB" transform="translate(-992 -420)">
    <rect id="Rectangle_75" data-name="Rectangle 75" width="40" height="28" rx="3" transform="translate(992 420)" fill="#fff"/>
    <g id="jcb-2" data-name="jcb" transform="translate(997.374 423.356)">
      <path id="Path_108" data-name="Path 108" d="M4.086,69.2A3.859,3.859,0,0,0,0,73.286v7.4a2.211,2.211,0,0,0,2.211,1.586,1.965,1.965,0,0,0,2.067-1.923V76.6H7.548v3.7c0,2.067-2.644,3.125-4.567,3.125a4.947,4.947,0,0,1-2.933-.913V90.69H5.24a4.16,4.16,0,0,0,3.942-3.942V69.2Z" transform="translate(0 -69.2)" fill="#0f549d"/>
      <path id="Path_109" data-name="Path 109" d="M0,73.286v7.4a2.211,2.211,0,0,0,2.211,1.586,1.965,1.965,0,0,0,2.067-1.923V76.6H7.548v3.7c0,2.067-2.644,3.125-4.567,3.125a4.947,4.947,0,0,1-2.933-.913V90.69H5.24a4.16,4.16,0,0,0,3.942-3.942V69.2" transform="translate(0 -69.2)" fill="#0f549d"/>
      <path id="Path_110" data-name="Path 110" d="M7.5,192.4v3.7c0,2.067-2.644,3.125-4.567,3.125A4.948,4.948,0,0,1,0,198.313v8.173H5.192a4.16,4.16,0,0,0,3.942-3.942" transform="translate(0 -184.996)" fill="#0f549d"/>
      <path id="Path_111" data-name="Path 111" d="M370.4,250.611h2.26a1.106,1.106,0,0,0,0-2.211H370.4Z" transform="translate(-348.141 -237.631)" fill="#329947"/>
      <path id="Path_112" data-name="Path 112" d="M348.134,69.2a3.822,3.822,0,0,0-4.086,4.038V76.6h6.057a1.586,1.586,0,0,1,0,3.173,1.629,1.629,0,0,1,1.731,1.538,1.6,1.6,0,0,1-1.731,1.538H344V90.69h5.192a4.16,4.16,0,0,0,3.942-3.942V69.2Z" transform="translate(-323.328 -69.2)" fill="#329947"/>
      <path id="Path_113" data-name="Path 113" d="M344,73.286V76.6h6.057a1.586,1.586,0,0,1,0,3.173,1.629,1.629,0,0,1,1.731,1.538,1.6,1.6,0,0,1-1.731,1.538H344V90.69h5.192a4.16,4.16,0,0,0,3.942-3.942V69.2" transform="translate(-323.328 -69.2)" fill="#329947"/>
      <g id="Group_106" data-name="Group 106" transform="translate(20.672 8.077)">
        <path id="Path_114" data-name="Path 114" d="M351.644,218.8a1.6,1.6,0,0,1-1.586,1.586,1.629,1.629,0,0,1,1.731,1.538,1.6,1.6,0,0,1-1.731,1.538H344V231.3h5.192a4.16,4.16,0,0,0,3.942-3.942" transform="translate(-344 -217.887)" fill="#329947"/>
        <path id="Path_115" data-name="Path 115" d="M373.717,204.706a1.152,1.152,0,0,0-1.106-1.106H370.4v2.163h2.26A1.067,1.067,0,0,0,373.717,204.706Z" transform="translate(-368.814 -203.6)" fill="#329947"/>
      </g>
      <path id="Path_116" data-name="Path 116" d="M175.286,69.2a3.822,3.822,0,0,0-4.086,4.038v4.134a3.278,3.278,0,0,1,2.067-.817h5.481v1.154a17.1,17.1,0,0,0-3.173-.433,2.452,2.452,0,0,0,0,4.9,16.171,16.171,0,0,0,3.173-.385v1.058h-5.481a2.948,2.948,0,0,1-2.067-.817V90.69h5.192a4.16,4.16,0,0,0,3.942-3.942V69.2Z" transform="translate(-160.912 -69.2)" fill="#b41f36"/>
      <path id="Path_117" data-name="Path 117" d="M171.2,73.286v4.134a3.278,3.278,0,0,1,2.067-.817h5.481v1.154a17.1,17.1,0,0,0-3.173-.433,2.452,2.452,0,0,0,0,4.9,16.171,16.171,0,0,0,3.173-.385v1.01h-5.481a2.948,2.948,0,0,1-2.067-.817V90.69h5.192a4.16,4.16,0,0,0,3.942-3.942V69.2" transform="translate(-160.912 -69.2)" fill="#b41f36"/>
      <path id="Path_118" data-name="Path 118" d="M178.748,192.4v1.154a17.1,17.1,0,0,0-3.173-.433,2.452,2.452,0,1,0,0,4.9,16.171,16.171,0,0,0,3.173-.385v1.01h-5.481a2.948,2.948,0,0,1-2.067-.817v8.654h5.192a4.16,4.16,0,0,0,3.942-3.942" transform="translate(-160.912 -184.996)" fill="#b41f36"/>
    </g>
  </g>
</svg>
