<svg width="20" height="20" viewBox="0 0 20 20" fill="none" xmlns="http://www.w3.org/2000/svg">
<path fill-rule="evenodd" clip-rule="evenodd" d="M4.51978 3.52046C4.26593 3.26662 3.85438 3.26662 3.60054 3.52046C3.3467 3.7743 3.3467 4.18586 3.60054 4.4397L9.16173 10.0009L3.60054 15.5621C3.3467 15.8159 3.3467 16.2275 3.60054 16.4813C3.85438 16.7352 4.26594 16.7352 4.51978 16.4813L10.081 10.9201L15.4755 16.3147C15.7294 16.5685 16.1409 16.5685 16.3948 16.3147C16.6486 16.0608 16.6486 15.6493 16.3948 15.3954L11.0002 10.0009L16.3948 4.60633C16.6486 4.35249 16.6486 3.94094 16.3948 3.6871C16.1409 3.43326 15.7294 3.43326 15.4755 3.6871L10.081 9.08165L4.51978 3.52046Z" fill="white"/>
</svg>
