<svg id="GFNxTWM" xmlns="http://www.w3.org/2000/svg" xmlns:xlink="http://www.w3.org/1999/xlink" width="274.013" height="46.856" viewBox="0 0 274.013 46.856">
  <defs>
    <clipPath id="clip-path">
      <rect id="Rectangle_90" data-name="Rectangle 90" width="89.013" height="17.027" transform="translate(309 4942)" fill="#fff"/>
    </clipPath>
  </defs>
  <g id="NVIDIA_GeForce_NOW_Logo" data-name="NVIDIA GeForce NOW Logo">
    <path id="Path_45" data-name="Path 45" d="M262.016,0,249.46,46.856h106.7L368.718,0Z" transform="translate(-195.345)" fill="#1e1e1e"/>
    <path id="Path_46" data-name="Path 46" d="M753.9,0,741.34,46.856h2.349L756.243,0Z" transform="translate(-580.523)" fill="#76b900"/>
    <path id="Path_47" data-name="Path 47" d="M0,0V46.856H54.115L66.67,0Z" fill="#76b900"/>
    <g id="NVIDIA_Logo" data-name="NVIDIA Logo" transform="translate(9.415 8.803)">
      <path id="NVIDIA" d="M59.121,142.847v7.07h2v-7.07Zm-15.721,0v7.07h2.015v-5.38h1.562a1.476,1.476,0,0,1,1.137.395,2.677,2.677,0,0,1,.434,1.874v3.111H50.5v-3.9c0-2.794-1.783-3.171-3.525-3.171H43.4m18.938,0v7.076h3.254c1.735,0,2.291-.286,2.9-.931a3.944,3.944,0,0,0,.709-2.529,4.177,4.177,0,0,0-.651-2.434c-.74-.987-1.807-1.18-3.4-1.18Zm1.983,1.54h.868a2.012,2.012,0,1,1,0,4.024H64.32Zm-8.081-1.54-1.668,5.608-1.6-5.608H50.817l2.282,7.076H55.98l2.3-7.074Zm13.883,7.074h2v-7.065h-2Zm5.6-7.072-2.8,7.074H74.9l.434-1.249h3.3l.417,1.249H81.2l-2.82-7.072ZM82.6,150.5a.989.989,0,1,1,.989-.989h0a.989.989,0,0,1-.981,1h-.013Zm0-1.787a.8.8,0,1,0,.785.811v-.013a.777.777,0,0,0-.764-.79h-.026Zm.178,1.323-.191-.408H82.46v.41h-.217v-1.052h.434a.334.334,0,0,1,.349.319v.013a.3.3,0,0,1-.2.278l.217.434Zm-.139-.868H82.46v.271h.165a.134.134,0,0,0,.143-.126h0a.137.137,0,0,0-.137-.128Zm-5.612-5.033,1.215,3.312H75.77Z" transform="translate(-43.4 -120.657)" fill="#fff"/>
      <path id="Eye_Mark" data-name="Eye Mark" d="M65.406,46.194V44.5q.247-.02.5-.026c4.651-.145,7.7,4,7.7,4s-3.3,4.571-6.833,4.571a4.363,4.363,0,0,1-1.375-.217V47.665c1.811.217,2.169,1.02,3.254,2.833l2.421-2.041a6.387,6.387,0,0,0-4.733-2.317,9.012,9.012,0,0,0-.937.054m0-5.614v2.538c.167-.013.334-.024.5-.028,6.467-.217,10.679,5.3,10.679,5.3s-4.84,5.883-9.879,5.883a7.278,7.278,0,0,1-1.3-.115v1.579a8.641,8.641,0,0,0,1.085.069c4.692,0,8.085-2.386,11.369-5.23.544.434,2.774,1.5,3.232,1.952-3.124,2.616-10.412,4.722-14.534,4.722-.4,0-.781-.024-1.156-.061V59.4H83.228V40.58Zm0,12.241V54.16c-4.339-.772-5.542-5.282-5.542-5.282a9.376,9.376,0,0,1,5.551-2.683v1.471h0a4.168,4.168,0,0,0-3.234,1.477s.8,2.857,3.241,3.688M57.707,48.7a10.747,10.747,0,0,1,7.705-4.187V43.127C59.726,43.584,54.8,48.4,54.8,48.4s2.79,8.063,10.612,8.8V55.739c-5.746-.731-7.712-7.057-7.712-7.057Z" transform="translate(-52.327 -40.58)" fill="#fff"/>
    </g>
    <path id="Path_48" data-name="Path 48" d="M341.71,115.06l5.64,8.291V115.06h2.417v12.484h-2.492l-5.64-8.276v8.274H339.22V115.06Z" transform="translate(-265.634 -90.1)" fill="#fff"/>
    <path id="Path_49" data-name="Path 49" d="M397.35,117.147a2.085,2.085,0,0,1,2.069-2.087h6.258a2.085,2.085,0,0,1,2.069,2.087v8.328a2.067,2.067,0,0,1-2.065,2.069h-6.263a2.067,2.067,0,0,1-2.069-2.065Zm7.358,8.182a.62.62,0,0,0,.623-.614v-6.8a.636.636,0,0,0-.616-.651h-4.326a.633.633,0,0,0-.623.651v6.8a.616.616,0,0,0,.61.623h4.339Z" transform="translate(-311.154 -90.1)" fill="#fff"/>
    <path id="Path_50" data-name="Path 50" d="M458.757,115.06h2.05l2.577,8.5,2.284-8.5h2.486L464.4,127.544h-2.126l-2.547-8.044-2.386,8.044h-2.126l-4-12.484h2.705l2.43,8.5Z" transform="translate(-353.33 -90.1)" fill="#fff"/>
    <path id="Path_51" data-name="Path 51" d="M535.86,115.06v.2H535.3v1.518h-.217v-1.518h-.531v-.2Zm1.636,0h.217v1.722H537.5v-1.334l-.5.855h-.178l-.469-.822v1.3h-.217v-1.714h.217l.577,1Z" transform="translate(-418.592 -90.1)" fill="#fff"/>
    <path id="Path_52" data-name="Path 52" d="M339.22,45.467a2.087,2.087,0,0,1,2.087-2.087h7.907v2.25h-6.9a.651.651,0,0,0-.651.623v5.857a.651.651,0,0,0,.182.434l.868.868a.612.612,0,0,0,.458.182h3.349a.616.616,0,0,0,.623-.61V50.736h-2.92V48.484h5.423v5.308a2.08,2.08,0,0,1-2.085,2.067h-5.564a.631.631,0,0,1-.458-.182l-2.124-2.124a.638.638,0,0,1-.184-.434Z" transform="translate(-265.634 -33.97)" fill="#fff"/>
    <path id="Path_53" data-name="Path 53" d="M399.554,45.585v2.929h5.07v2.215h-5.07v2.909h6.317v2.215H397.12V43.37h8.751v2.215Z" transform="translate(-310.974 -33.962)" fill="#fff"/>
    <path id="Path_54" data-name="Path 54" d="M448.264,55.852H445.83V43.37h8.749v2.215h-6.315v2.929h5.078v2.215h-5.078Z" transform="translate(-349.118 -33.962)" fill="#fff"/>
    <path id="Path_55" data-name="Path 55" d="M494.12,45.467a2.08,2.08,0,0,1,2.07-2.087h6.258a2.08,2.08,0,0,1,2.069,2.087v8.326a2.067,2.067,0,0,1-2.067,2.067h-6.26a2.067,2.067,0,0,1-2.07-2.065h0Zm7.349,8.178a.616.616,0,0,0,.623-.61v-6.8a.633.633,0,0,0-.623-.651h-4.31a.631.631,0,0,0-.623.651h0v6.79a.616.616,0,0,0,.61.623h4.339Z" transform="translate(-386.932 -33.97)" fill="#fff"/>
    <path id="Path_56" data-name="Path 56" d="M561.959,55.852h-2.6l-3.08-5.087h-2.289v5.087H551.57V43.37h7.486a2.085,2.085,0,0,1,2.087,2.089v3.219a2.087,2.087,0,0,1-2.087,2.087h-.134Zm-7.981-7.3h4.076a.616.616,0,0,0,.623-.61V46.225a.631.631,0,0,0-.623-.651h-4.067Z" transform="translate(-431.92 -33.962)" fill="#fff"/>
    <path id="Path_57" data-name="Path 57" d="M613.8,45.593H608.5a.629.629,0,0,0-.623.623v6.807a.616.616,0,0,0,.61.623H613.8V55.86h-6.241a2.08,2.08,0,0,1-2.087-2.067V45.467a2.085,2.085,0,0,1,2.083-2.087H613.8Z" transform="translate(-474.127 -33.97)" fill="#fff"/>
    <path id="Path_58" data-name="Path 58" d="M655.5,45.585v2.929h5.07v2.215H655.5v2.909h6.315v2.215H653.07V43.37h8.749v2.215Z" transform="translate(-511.402 -33.962)" fill="#fff"/>
  </g>
  <path id="Path_91" data-name="Path 91" d="M866.35,29.733V20.1h5.48a1.54,1.54,0,0,1,1.135.473,1.56,1.56,0,0,1,.469,1.141V24.2a1.559,1.559,0,0,1-.469,1.141,1.536,1.536,0,0,1-1.137.473H868.2v3.92Zm1.848-5.64h2.9a.482.482,0,0,0,.484-.484v-1.3a.488.488,0,0,0-.141-.347.46.46,0,0,0-.343-.15h-2.9Z" transform="translate(-678.415 -15.739)" fill="#fff"/>
  <path id="Path_92" data-name="Path 92" d="M904.619,28.138V21.713a1.56,1.56,0,0,1,.469-1.141,1.519,1.519,0,0,1,1.132-.473h4.814a1.529,1.529,0,0,1,1.124.473,1.553,1.553,0,0,1,.471,1.141v6.425a1.592,1.592,0,0,1-1.594,1.594H906.22a1.588,1.588,0,0,1-1.59-1.594Zm1.848-.592a.458.458,0,0,0,.141.338.479.479,0,0,0,.343.137h3.336a.471.471,0,0,0,.341-.137.453.453,0,0,0,.143-.338V22.305a.481.481,0,0,0-.143-.347.451.451,0,0,0-.341-.15h-3.336a.46.46,0,0,0-.343.15.488.488,0,0,0-.141.347Z" transform="translate(-708.383 -15.739)" fill="#fff"/>
  <path id="Path_93" data-name="Path 93" d="M945.47,20h2.089l1.883,6.571L951.3,20h1.571l1.994,6.573L956.648,20h1.9l-2.9,9.655h-1.642L952,23.289l-1.9,6.367h-1.538Z" transform="translate(-740.372 -15.661)" fill="#fff"/>
  <path id="Path_94" data-name="Path 94" d="M1010.34,29.734V20.1h6.751v1.714h-4.872v2.258h3.9v1.709h-3.9v2.241h4.874v1.712Z" transform="translate(-791.17 -15.74)" fill="#fff"/>
  <path id="Path_95" data-name="Path 95" d="M1047.63,29.734V20.1h5.772a1.607,1.607,0,0,1,1.605,1.614V24.2a1.56,1.56,0,0,1-.469,1.141,1.538,1.538,0,0,1-1.139.473h-.117l2.358,3.924h-2.013l-2.386-3.924h-1.768v3.92Zm1.848-5.64h3.143a.486.486,0,0,0,.484-.484v-1.3a.481.481,0,0,0-.143-.347.451.451,0,0,0-.34-.15h-3.143Z" transform="translate(-820.371 -15.74)" fill="#fff"/>
  <path id="Path_96" data-name="Path 96" d="M1090.12,29.734V20.1h6.751v1.714H1092v2.258h3.9v1.709H1092v2.241h4.874v1.712Z" transform="translate(-853.644 -15.74)" fill="#fff"/>
  <path id="Path_97" data-name="Path 97" d="M1127.41,29.733V20.1h4.959a2.92,2.92,0,0,1,2.148.9,2.955,2.955,0,0,1,.892,2.169v3.521a3.037,3.037,0,0,1-3.037,3.048Zm1.848-1.712h2.82a1.412,1.412,0,0,0,1.032-.423,1.388,1.388,0,0,0,.434-1.017V23.264a1.449,1.449,0,0,0-1.456-1.456h-2.82Z" transform="translate(-882.844 -15.739)" fill="#fff"/>
  <path id="Path_98" data-name="Path 98" d="M1186.5,29.734V20.1h5.616a1.612,1.612,0,0,1,1.61,1.614v1.807a1.084,1.084,0,0,1-.239.685,1.119,1.119,0,0,1-.6.4,1.381,1.381,0,0,1,.692.4.974.974,0,0,1,.289.683v2.447a1.6,1.6,0,0,1-1.6,1.594Zm1.844-5.874h3.015a.492.492,0,0,0,.486-.484V22.291a.492.492,0,0,0-.486-.484h-3.015Zm0,4.163h3.169a.5.5,0,0,0,.354-.137.454.454,0,0,0,.145-.338v-1.64a.455.455,0,0,0-.15-.343.49.49,0,0,0-.349-.141h-3.169Z" transform="translate(-929.116 -15.74)" fill="#fff"/>
  <path id="Path_99" data-name="Path 99" d="M1224.42,20h2.193l1.922,3.254L1230.488,20h1.952l-3.08,5.08v4.575h-1.848V25.089Z" transform="translate(-958.81 -15.661)" fill="#fff"/>
  <g id="Mask_Group_8" data-name="Mask Group 8" transform="translate(-124 -4917)" clip-path="url(#clip-path)">
    <g id="圖層_2" data-name="圖層 2" transform="translate(310.562 4942)">
      <g id="圖層_1" data-name="圖層 1">
        <g id="Group_194" data-name="Group 194" transform="translate(0 -1)">
          <path id="Path_161" data-name="Path 161" d="M150.107,14.725h-6v2.838h6Zm-4.778,1.068h3.559v.7h-3.559Z" transform="translate(-80.68 -8.621)" fill="#fff"/>
          <path id="Path_162" data-name="Path 162" d="M150.461,15.732h1.253V12.161h1.28v-1.2h-10.94v1.2h8.407Z" transform="translate(-79.615 -6.67)" fill="#fff"/>
          <path id="Path_163" data-name="Path 163" d="M59.741,28.518h8.3a1.621,1.621,0,0,0,1.8-1.616V23.652h-10.1Zm1.33-3.571h7.446v1.589c0,.532-.258.686-.771.686H61.072Z" transform="translate(-36.987 -13.244)" fill="#fff"/>
          <path id="Path_164" data-name="Path 164" d="M67.49,12.376l.856,1.543H60.715v-.278a1.13,1.13,0,0,1,.686-1.08l3.224-1.589L64.031,9.75,60.7,11.4a2.314,2.314,0,0,0-1.438,2.287V15.23h9.841l.386.656,1.157-.609-1.986-3.471Z" transform="translate(-36.738 -6.044)" fill="#fff"/>
          <path id="Path_165" data-name="Path 165" d="M140.847,23.073h8.989v2.364c0,1.284-.9,1.543-2.121,1.543v1.249h.2c2.059,0,3.174-.929,3.174-2.807V23.073h1.543V21.916H140.847Z" transform="translate(-78.99 -12.345)" fill="#fff"/>
          <path id="Path_166" data-name="Path 166" d="M120.521,14.495h4.924V13.122h-4.928v-2.58h-1.4v2.58h-4.824v1.373h4.755c-.443,2.426-1.311,4.917-5.137,6.367l.671,1.249c3.621-1.361,4.766-3.552,5.306-5.673a9.54,9.54,0,0,0,5.225,5.673l.733-1.28a9.186,9.186,0,0,1-5.322-6.336" transform="translate(-65.038 -6.455)" fill="#fff"/>
          <path id="Path_167" data-name="Path 167" d="M149.974,25.6h-6.12v2.931h6.12Zm-1.219,1.863h-3.687v-.8h3.679Z" transform="translate(-80.547 -14.251)" fill="#fff"/>
          <path id="Path_168" data-name="Path 168" d="M173.651,14.495h4.924V13.122h-4.924v-2.58h-1.419v2.58h-4.824v1.373h4.755c-.443,2.426-1.311,4.917-5.137,6.367l.671,1.249c3.64-1.361,4.766-3.54,5.306-5.673a9.54,9.54,0,0,0,5.225,5.673l.733-1.28a9.186,9.186,0,0,1-5.31-6.336" transform="translate(-92.547 -6.455)" fill="#fff"/>
          <path id="Path_169" data-name="Path 169" d="M86.642,25.185c0,1.8-.274,2.869-1.585,3.436l.748,1.022c1.8-.686,2.059-2.456,2.059-4.628v-.108H86.642Z" transform="translate(-50.097 -13.894)" fill="#fff"/>
          <path id="Path_170" data-name="Path 170" d="M85.689,10.913l1.832,2.044.9-.841-1.832-1.982Z" transform="translate(-50.424 -6.244)" fill="#fff"/>
          <path id="Path_171" data-name="Path 171" d="M85.561,17.5l1.8,2.028.929-.841-1.816-1.967Z" transform="translate(-50.358 -9.652)" fill="#fff"/>
          <path id="Path_172" data-name="Path 172" d="M93.721,25.334h6.71v-2.41H92.406V23.9H99.2v.49H92.68l-.536,2.854,1.207.2.1-.548h6.209c-.181.432-.821.659-2.642.686v1.114h.135c2.734,0,3.787-.771,3.787-2.26v-.578h-7.3Z" transform="translate(-53.767 -12.867)" fill="#fff"/>
          <path id="Path_173" data-name="Path 173" d="M97.511,11.362v-.895h1.253V9.974h.987v.494h1.269v.895Z" transform="translate(-56.547 -6.161)" fill="#fff"/>
          <path id="Path_174" data-name="Path 174" d="M100.177,20.369v-.5H99.29v.5h-.875v-1.4h2.638v1.4Z" transform="translate(-57.015 -10.821)" fill="#fff"/>
          <rect id="Rectangle_88" data-name="Rectangle 88" width="2.414" height="0.891" transform="translate(41.512 6.876)" fill="#fff"/>
          <rect id="Rectangle_89" data-name="Rectangle 89" width="2.414" height="0.891" transform="translate(41.512 5.599)" fill="#fff"/>
          <path id="Path_175" data-name="Path 175" d="M93.792,14.9h-.683v-.039a.771.771,0,0,1,.131-.505l1.639-1.971-.683-.54-.609.725h-.467v-.239a.625.625,0,0,1,.143-.413l.918-1.157-.694-.551L92.4,11.517a1.126,1.126,0,0,0-.278.771v1.018h.818l-.513.6a1.442,1.442,0,0,0-.324,1.03v.891h2.638V14.1h-.968Z" transform="translate(-53.746 -6.281)" fill="#fff"/>
          <path id="Path_176" data-name="Path 176" d="M106.357,14.9h-.683v-.039a.8.8,0,0,1,.127-.505l1.643-1.971-.683-.54-.621.725h-.467v-.239a.625.625,0,0,1,.143-.413l.918-1.157-.694-.551-1.084,1.311a1.126,1.126,0,0,0-.278.771v1.018h.8l-.509.594a1.442,1.442,0,0,0-.324,1.03v.891h2.661V14.1h-.968Z" transform="translate(-60.241 -6.281)" fill="#fff"/>
        </g>
        <path id="Path_177" data-name="Path 177" d="M28.117,25.7,22.4,22.4V29Z" transform="translate(-13.884 -13.884)" fill="#d71e17"/>
        <path id="Path_178" data-name="Path 178" d="M7.351,25.7h0L13.069,29V22.4Z" transform="translate(-4.557 -13.884)" fill="#e8340e"/>
        <path id="Path_179" data-name="Path 179" d="M40.243,15.454,39.1,11.2l-1.651.955Z" transform="translate(-23.216 -6.942)" fill="#dc4b92"/>
        <path id="Path_180" data-name="Path 180" d="M35.064,31.09,33.6,35.158l3.116-3.116Z" transform="translate(-20.831 -19.274)" fill="#449"/>
        <path id="Path_181" data-name="Path 181" d="M39.1,26.652,40.243,22.4l-2.794,3.3Z" transform="translate(-23.216 -13.884)" fill="#5d52a0"/>
        <path id="Path_182" data-name="Path 182" d="M13.069,5.023l-5.718,3.3,5.718,3.3Z" transform="translate(-4.557 -3.114)" fill="#f29200"/>
        <path id="Path_183" data-name="Path 183" d="M28.117,20.315V13.71l-5.721,3.3Z" transform="translate(-13.884 -8.499)" fill="#e8340e"/>
        <path id="Path_184" data-name="Path 184" d="M7.351,13.71v6.606l5.718-3.3Z" transform="translate(-4.557 -8.499)" fill="#ec6400"/>
        <path id="Path_185" data-name="Path 185" d="M22.4,41.686l4.256-1.14L22.4,39.777Z" transform="translate(-13.884 -24.659)" fill="#004d5a"/>
        <path id="Path_186" data-name="Path 186" d="M35.064,7.07l1.654-.955L33.6,3Z" transform="translate(-20.831 -1.859)" fill="#fabf00"/>
        <path id="Path_187" data-name="Path 187" d="M28.117,8.325h0L22.4,5.023v6.6Z" transform="translate(-13.884 -3.114)" fill="#ec6400"/>
        <path id="Path_188" data-name="Path 188" d="M1.14,11.2,0,15.454l2.794-3.3Z" transform="translate(0 -6.942)" fill="#fabf00"/>
        <path id="Path_189" data-name="Path 189" d="M15.454,39.777l-4.256.769,4.256,1.14Z" transform="translate(-6.942 -24.659)" fill="#008876"/>
        <path id="Path_190" data-name="Path 190" d="M4.653,7.07,6.115,3,3,6.115Z" transform="translate(-1.859 -1.859)" fill="#fedb00"/>
        <path id="Path_191" data-name="Path 191" d="M15.454,0,11.2,1.14l4.256.766Z" transform="translate(-6.942)" fill="#fedb00"/>
        <path id="Path_192" data-name="Path 192" d="M0,22.4l1.14,4.256L2.794,25.7Z" transform="translate(0 -13.884)" fill="#fabf00"/>
        <path id="Path_193" data-name="Path 193" d="M4.653,31.09,3,32.042l3.116,3.116Z" transform="translate(-1.859 -19.274)" fill="#5dbea9"/>
        <path id="Path_194" data-name="Path 194" d="M26.655,1.14,22.4,0V1.909Z" transform="translate(-13.884)" fill="#fabf00"/>
        <path id="Path_195" data-name="Path 195" d="M22.4,34.392l4.256.769,1.465-4.071Z" transform="translate(-13.884 -19.274)" fill="#5d52a0"/>
        <path id="Path_196" data-name="Path 196" d="M7.351,31.09l1.462,4.067,4.256-.766Z" transform="translate(-4.557 -19.274)" fill="#00a574"/>
        <path id="Path_197" data-name="Path 197" d="M28.117,7.07,26.655,3,22.4,3.769Z" transform="translate(-13.884 -1.859)" fill="#f49f00"/>
        <path id="Path_198" data-name="Path 198" d="M37.449,13.71v6.606l2.794-3.3Z" transform="translate(-23.216 -8.499)" fill="#ce186d"/>
        <path id="Path_199" data-name="Path 199" d="M13.069,3.769,8.813,3,7.351,7.07Z" transform="translate(-4.557 -1.859)" fill="#fabf00"/>
        <path id="Path_200" data-name="Path 200" d="M2.794,20.315V13.71L0,17.011Z" transform="translate(0 -8.499)" fill="#f49f00"/>
      </g>
    </g>
  </g>
</svg>
