<svg xmlns="http://www.w3.org/2000/svg" viewBox="0 0 239.77 56.01"><defs><style>.cls-1{fill:#fff;}.cls-2{fill:#d71e17;}.cls-3{fill:#e8340e;}.cls-4{fill:#dc4b92;}.cls-5{fill:#449;}.cls-6{fill:#5d52a0;}.cls-7{fill:#f29200;}.cls-8{fill:#ec6400;}.cls-9{fill:#004d5a;}.cls-10{fill:#fabf00;}.cls-11{fill:#008876;}.cls-12{fill:#fedb00;}.cls-13{fill:#5dbea9;}.cls-14{fill:#00a574;}.cls-15{fill:#f49f00;}.cls-16{fill:#ce186d;}</style></defs><g id="圖層_2" data-name="圖層 2"><g id="圖層_1-2" data-name="圖層 1"><path class="cls-1" d="M195.72,18.41H180.17v7.36h15.55Zm-12.39,2.77h9.23V23h-9.23Z"/><polygon class="cls-1" points="199.4 26.08 202.65 26.08 202.65 16.82 205.97 16.82 205.97 13.7 177.6 13.7 177.6 16.82 199.4 16.82 199.4 26.08"/><path class="cls-1" d="M74.69,42.19H96.22c2.7,0,4.67-1.58,4.67-4.19V29.57H74.69Zm3.45-9.26H97.45v4.12c0,1.38-.67,1.78-2,1.78H78.14Z"/><path class="cls-1" d="M95.43,19,97.65,23H77.86v-.72a2.93,2.93,0,0,1,1.78-2.8L88,15.36l-1.54-3.17-8.63,4.28A6,6,0,0,0,74.1,22.4v4H99.62l1,1.7,3-1.58-5.15-9Z"/><path class="cls-1" d="M176.09,30.4H199.4v6.13c0,3.33-2.33,4-5.5,4v3.24h.52c5.34,0,8.23-2.41,8.23-7.28V30.4h4v-3H176.09Z"/><path class="cls-1" d="M159.56,23.43h12.77V19.87H159.55V13.18h-3.64v6.69H143.4v3.56h12.33c-1.15,6.29-3.4,12.75-13.32,16.51l1.74,3.24c9.39-3.53,12.36-9.21,13.76-14.71a24.74,24.74,0,0,0,13.55,14.71l1.9-3.32a23.82,23.82,0,0,1-13.8-16.43"/><path class="cls-1" d="M195.72,32H179.85v7.6h15.87Zm-3.16,4.83H183V34.75h9.54Z"/><path class="cls-1" d="M226,23.43h12.77V19.87H226V13.18h-3.68v6.69H209.81v3.56h12.33c-1.15,6.29-3.4,12.75-13.32,16.51l1.74,3.24C220,39.65,222.92,34,224.32,28.47a24.74,24.74,0,0,0,13.55,14.71l1.9-3.32A23.82,23.82,0,0,1,226,23.43"/><path class="cls-1" d="M110.45,31.86c0,4.67-.71,7.44-4.11,8.91l1.94,2.65c4.67-1.78,5.34-6.37,5.34-12v-.28h-3.17Z"/><polygon class="cls-1" points="107.13 14.69 111.88 19.99 114.21 17.81 109.46 12.67 107.13 14.69"/><polygon class="cls-1" points="106.97 22.92 111.64 28.18 114.05 26 109.34 20.9 106.97 22.92"/><path class="cls-1" d="M119.29,34.91h17.4V28.66H115.88v2.53h17.61v1.27h-16.9l-1.39,7.4,3.13.51.25-1.42h16.1c-.47,1.12-2.13,1.71-6.85,1.78v2.89h.35c7.09,0,9.82-2,9.82-5.86v-1.5H119.06Z"/><polygon class="cls-1" points="121.91 16.07 121.91 13.75 125.16 13.75 125.16 12.47 127.72 12.47 127.72 13.75 131.01 13.75 131.01 16.07 121.91 16.07"/><polygon class="cls-1" points="127.61 27.34 127.61 26.05 125.31 26.05 125.31 27.34 123.04 27.34 123.04 23.72 129.88 23.72 129.88 27.34 127.61 27.34"/><rect class="cls-1" x="123.33" y="20.41" width="6.26" height="2.31"/><rect class="cls-1" x="123.33" y="17.1" width="6.26" height="2.31"/><path class="cls-1" d="M119.53,24.92h-1.77v-.1a2,2,0,0,1,.34-1.31l4.25-5.11L120.58,17,119,18.88h-1.21v-.62a1.62,1.62,0,0,1,.37-1.07l2.38-3-1.8-1.43-2.81,3.4a2.92,2.92,0,0,0-.72,2v2.64h2.12L116,22.36a3.74,3.74,0,0,0-.84,2.67v2.31H122V22.85h-2.51Z"/><path class="cls-1" d="M135.27,24.92H133.5v-.1a2.07,2.07,0,0,1,.33-1.31l4.26-5.11L136.32,17l-1.61,1.88H133.5v-.62a1.62,1.62,0,0,1,.37-1.07l2.38-3-1.8-1.43-2.81,3.4a2.92,2.92,0,0,0-.72,2v2.64H133l-1.32,1.54a3.74,3.74,0,0,0-.84,2.67v2.31h6.9V22.85h-2.51Z"/><polygon class="cls-2" points="46.82 38.87 28 28 28 49.73 46.82 38.87"/><polygon class="cls-3" points="9.19 38.87 9.19 38.87 28 49.73 28 28 9.19 38.87"/><polygon class="cls-4" points="56.01 28 52.25 14 46.82 17.14 56.01 28"/><polygon class="cls-5" points="46.82 38.87 42.01 52.25 52.26 42 46.82 38.87"/><polygon class="cls-6" points="52.25 42 56.01 28 46.82 38.87 52.25 42"/><polygon class="cls-7" points="28 6.28 9.19 17.14 28 28 28 6.28"/><polygon class="cls-3" points="46.82 38.87 46.82 17.14 28 28 46.82 38.87"/><polygon class="cls-8" points="9.19 17.14 9.19 38.87 28 28 9.19 17.14"/><polygon class="cls-9" points="28 56.01 42 52.26 28 49.73 28 56.01"/><polygon class="cls-10" points="46.82 17.14 52.26 14 42.01 3.75 46.82 17.14"/><polygon class="cls-8" points="46.82 17.14 46.82 17.14 28 6.28 28 28 46.82 17.14"/><polygon class="cls-10" points="3.75 14 0 28 9.19 17.14 3.75 14"/><polygon class="cls-11" points="28 49.73 14 52.26 28 56.01 28 49.73"/><polygon class="cls-12" points="9.19 17.14 14 3.75 3.75 14 9.19 17.14"/><polygon class="cls-12" points="28 0 14 3.75 28 6.27 28 0"/><polygon class="cls-10" points="0 28 3.75 42 9.19 38.87 0 28"/><polygon class="cls-13" points="9.19 38.87 3.75 42 14 52.25 9.19 38.87"/><polygon class="cls-10" points="42.01 3.75 28 0 28 6.28 42.01 3.75"/><polygon class="cls-6" points="28 49.73 42 52.26 46.82 38.87 28 49.73"/><polygon class="cls-14" points="9.19 38.87 14 52.25 28 49.73 9.19 38.87"/><polygon class="cls-15" points="46.82 17.14 42.01 3.75 28 6.28 46.82 17.14"/><polygon class="cls-16" points="46.82 17.14 46.82 38.87 56.01 28 46.82 17.14"/><polygon class="cls-10" points="28 6.28 14 3.75 9.19 17.14 28 6.28"/><polygon class="cls-15" points="9.19 38.87 9.19 17.14 0 28 9.19 38.87"/></g></g></svg>