<svg xmlns="http://www.w3.org/2000/svg" width="145" height="101.758" viewBox="0 0 145 101.758"><defs><style>.a{fill:#76b900;}</style></defs><path class="a" d="M56.334,101.758V98.386H66.549v-12.2H1.983A1.989,1.989,0,0,1,0,84.2V1.983A1.989,1.989,0,0,1,1.983,0H143.017A1.989,1.989,0,0,1,145,1.983V84.2a1.989,1.989,0,0,1-1.983,1.983H79.344v12.2H89.559v3.372ZM1.983,73H143.017V1.983H1.983ZM61.6,51.722c-3.216-4.651-5.671-13.134-2.37-18.862a9.168,9.168,0,0,1,7.743-4.692c2.417-.043,4.7,1.63,6.176,1.63s4.255-2.012,7.165-1.714a8.737,8.737,0,0,1,6.845,3.705,8.461,8.461,0,0,0-4.041,7.127,8.28,8.28,0,0,0,5.023,7.575,20.838,20.838,0,0,1-2.6,5.324c-1.559,2.278-3.173,4.548-5.725,4.6-2.506.046-3.312-1.489-6.178-1.489s-3.762,1.44-6.132,1.534l-.127,0C64.981,56.459,63.142,53.956,61.6,51.722ZM72.848,27.652a7.848,7.848,0,0,1,1.986-5.79,8.379,8.379,0,0,1,5.514-2.834A8.253,8.253,0,0,1,78.4,25.006a7.1,7.1,0,0,1-5.172,2.662C73.1,27.668,72.975,27.662,72.848,27.652Z"/></svg>