<svg xmlns="http://www.w3.org/2000/svg" width="40" height="28" viewBox="0 0 40 28">
  <g id="MaterCard" transform="translate(-1039 -420)">
    <rect id="Rectangle_76" data-name="Rectangle 76" width="40" height="28" rx="3" transform="translate(1039 420)" fill="#fff"/>
    <g id="mastercard" transform="translate(1041.569 423.732)">
      <path id="Path_119" data-name="Path 119" d="M222,111a10.2,10.2,0,1,1-20.4,0h0a10.2,10.2,0,1,1,20.4,0Z" transform="translate(-188 -100.8)" fill="#f7981d"/>
      <path id="Path_120" data-name="Path 120" d="M211.8,100.8A10.227,10.227,0,0,1,222,111h0a10.2,10.2,0,0,1-20.4,0" transform="translate(-188 -100.8)" fill="#f7981d"/>
      <path id="Path_121" data-name="Path 121" d="M352.8,100.8A10.226,10.226,0,0,1,363,111h0a10.192,10.192,0,0,1-10.2,10.2" transform="translate(-329 -100.8)" fill="#f7981d"/>
      <path id="Path_122" data-name="Path 122" d="M10.092,100.8a10.2,10.2,0,0,0,.108,20.4,10.319,10.319,0,0,0,6.854-2.644h0a9.7,9.7,0,0,0,1.025-1.079h-2.1a12.449,12.449,0,0,1-.756-1.025h3.616a6.913,6.913,0,0,0,.594-1.079h-4.8a6.432,6.432,0,0,1-.432-1.079h5.613a10.716,10.716,0,0,0,.54-3.238,13.93,13.93,0,0,0-.216-2.159H13.87a7.89,7.89,0,0,1,.27-1.079h5.613a6.433,6.433,0,0,0-.432-1.079H14.571a10.7,10.7,0,0,1,.594-1.079h3.616a5.132,5.132,0,0,0-.81-1.079h-2A9.2,9.2,0,0,1,17,103.552a9.959,9.959,0,0,0-6.854-2.644C10.146,100.8,10.146,100.8,10.092,100.8Z" transform="translate(0 -100.8)" fill="#e52836"/>
      <path id="Path_123" data-name="Path 123" d="M0,112.492a10.192,10.192,0,0,0,10.2,10.2,10.319,10.319,0,0,0,6.854-2.644h0a9.7,9.7,0,0,0,1.025-1.079h-2.1a12.449,12.449,0,0,1-.756-1.025h3.616a6.913,6.913,0,0,0,.594-1.079h-4.8a6.432,6.432,0,0,1-.432-1.079h5.613a10.716,10.716,0,0,0,.54-3.238,13.93,13.93,0,0,0-.216-2.159H13.87a7.89,7.89,0,0,1,.27-1.079h5.613a6.433,6.433,0,0,0-.432-1.079H14.571a10.7,10.7,0,0,1,.594-1.079h3.616a5.132,5.132,0,0,0-.81-1.079h-2A9.2,9.2,0,0,1,17,105.044a9.959,9.959,0,0,0-6.854-2.644h-.054" transform="translate(0 -102.292)" fill="#e52836"/>
      <path id="Path_124" data-name="Path 124" d="M149.708,122.692a10.319,10.319,0,0,0,6.854-2.644h0a9.7,9.7,0,0,0,1.025-1.079h-2.1a12.452,12.452,0,0,1-.756-1.025h3.616a6.914,6.914,0,0,0,.594-1.079h-4.8a6.432,6.432,0,0,1-.432-1.079h5.613a10.716,10.716,0,0,0,.54-3.238,13.93,13.93,0,0,0-.216-2.159h-6.26a7.888,7.888,0,0,1,.27-1.079h5.613a6.434,6.434,0,0,0-.432-1.079h-4.749a10.7,10.7,0,0,1,.594-1.079h3.616a5.132,5.132,0,0,0-.81-1.079h-2a9.2,9.2,0,0,1,1.025-1.025,9.959,9.959,0,0,0-6.854-2.644H149.6" transform="translate(-139.508 -102.292)" fill="#e52836"/>
      <g id="Group_107" data-name="Group 107" transform="translate(0.971 7.556)">
        <path id="Path_125" data-name="Path 125" d="M183.165,224.749l.162-.917a2.338,2.338,0,0,1-.27.054c-.378,0-.432-.216-.378-.324l.324-1.889h.594l.162-1.025h-.54l.108-.648h-1.079s-.648,3.562-.648,3.994a.81.81,0,0,0,.863.917A1.657,1.657,0,0,0,183.165,224.749Z" transform="translate(-170.321 -219.514)" fill="#fff"/>
        <path id="Path_126" data-name="Path 126" d="M210.4,231.134a1.717,1.717,0,0,0,1.889,1.889,2.8,2.8,0,0,0,1.133-.162l.216-1.025a3.235,3.235,0,0,1-1.133.27c-1.187,0-.971-.863-.971-.863h2.213a7,7,0,0,0,.162-.971,1.462,1.462,0,0,0-1.565-1.565C211.21,228.6,210.4,229.785,210.4,231.134Zm1.889-1.565c.594,0,.486.7.486.756h-1.187C211.587,230.271,211.7,229.569,212.289,229.569Z" transform="translate(-197.178 -227.626)" fill="#fff"/>
        <path id="Path_127" data-name="Path 127" d="M298.968,218.035l.216-1.187a2.652,2.652,0,0,1-.917.27c-.756,0-1.079-.594-1.079-1.241,0-1.3.648-2,1.4-2a1.8,1.8,0,0,1,.971.324l.162-1.133a3.8,3.8,0,0,0-1.241-.27c-1.241,0-2.483,1.079-2.483,3.13,0,1.349.648,2.267,1.943,2.267A4.843,4.843,0,0,0,298.968,218.035Z" transform="translate(-277.003 -212.8)" fill="#fff"/>
        <path id="Path_128" data-name="Path 128" d="M88.451,227.2a3.822,3.822,0,0,0-1.3.216l-.162.917a3.19,3.19,0,0,1,1.187-.216c.378,0,.7.054.7.378,0,.216-.054.27-.054.27h-.486c-.917,0-1.943.378-1.943,1.619,0,.971.648,1.187,1.025,1.187a1.622,1.622,0,0,0,1.133-.486l-.054.432h.971l.432-2.968A1.279,1.279,0,0,0,88.451,227.2Zm.216,2.429c0,.162-.108,1.025-.756,1.025a.421.421,0,0,1-.432-.432c0-.27.162-.648.971-.648A.851.851,0,0,0,88.667,229.629Z" transform="translate(-81.543 -226.229)" fill="#fff"/>
        <path id="Path_129" data-name="Path 129" d="M136.441,230.825a1.383,1.383,0,0,0,1.619-1.4c0-1.349-1.3-1.079-1.3-1.619,0-.27.216-.378.594-.378.162,0,.756.054.756.054l.162-.971a4.1,4.1,0,0,0-1.025-.108c-.81,0-1.619.324-1.619,1.4,0,1.241,1.349,1.133,1.349,1.619,0,.324-.378.378-.648.378a3.53,3.53,0,0,1-.971-.162l-.162.971C135.254,230.717,135.524,230.825,136.441,230.825Z" transform="translate(-127.051 -225.483)" fill="#fff"/>
        <path id="Path_130" data-name="Path 130" d="M430.276,214.4l-.216,1.457a1.5,1.5,0,0,0-1.025-.54c-.971,0-1.835,1.187-1.835,2.59,0,.863.432,1.781,1.349,1.781a1.441,1.441,0,0,0,1.025-.432l-.054.378H430.6l.81-5.181Zm-.486,2.86c0,.594-.27,1.349-.863,1.349-.378,0-.594-.324-.594-.863,0-.863.378-1.4.864-1.4C429.575,216.343,429.79,216.613,429.79,217.26Z" transform="translate(-399.352 -214.292)" fill="#fff"/>
        <path id="Path_131" data-name="Path 131" d="M15.425,219.581l.648-3.886.108,3.886h.756l1.4-3.886-.594,3.886h1.133l.863-5.181H17.962l-1.079,3.184-.054-3.184H15.263l-.863,5.181Z" transform="translate(-14.4 -214.292)" fill="#fff"/>
        <path id="Path_132" data-name="Path 132" d="M261.187,233.01c.324-1.781.378-3.238,1.133-2.968a4.236,4.236,0,0,1,.378-1.241h-.216c-.486,0-.863.648-.863.648l.108-.594H260.7l-.7,4.21h1.187Z" transform="translate(-243.432 -227.721)" fill="#fff"/>
        <path id="Path_133" data-name="Path 133" d="M348.451,227.2a3.822,3.822,0,0,0-1.3.216l-.162.917a3.19,3.19,0,0,1,1.187-.216c.378,0,.7.054.7.378,0,.216-.054.27-.054.27h-.486c-.917,0-1.943.378-1.943,1.619,0,.971.648,1.187,1.025,1.187a1.622,1.622,0,0,0,1.133-.486l-.054.432h.971l.432-2.968A1.26,1.26,0,0,0,348.451,227.2Zm.27,2.429c0,.162-.108,1.025-.756,1.025a.421.421,0,0,1-.432-.432c0-.27.162-.648.971-.648C348.667,229.629,348.667,229.629,348.721,229.629Z" transform="translate(-324.003 -226.229)" fill="#fff"/>
        <path id="Path_134" data-name="Path 134" d="M395.587,233.01c.324-1.781.378-3.238,1.133-2.968a4.236,4.236,0,0,1,.378-1.241h-.216c-.486,0-.863.648-.863.648l.108-.594H395.1l-.7,4.21h1.187Z" transform="translate(-368.765 -227.721)" fill="#fff"/>
      </g>
      <g id="Group_108" data-name="Group 108" transform="translate(0.971 7.556)">
        <path id="Path_135" data-name="Path 135" d="M180,223.994a.81.81,0,0,0,.863.917,2.054,2.054,0,0,0,.81-.162l.162-.917a2.337,2.337,0,0,1-.27.054c-.378,0-.432-.216-.378-.324l.324-1.889h.594l.162-1.025h-.54l.108-.648" transform="translate(-168.829 -219.514)" fill="#fff"/>
        <path id="Path_136" data-name="Path 136" d="M218.4,231.134c0,1.511.486,1.889,1.349,1.889a2.8,2.8,0,0,0,1.133-.162l.216-1.025a3.235,3.235,0,0,1-1.133.27c-1.187,0-.971-.863-.971-.863h2.213a7,7,0,0,0,.162-.971,1.462,1.462,0,0,0-1.565-1.565C218.67,228.6,218.4,229.785,218.4,231.134Zm1.349-1.565c.594,0,.7.7.7.756h-1.4C219.048,230.271,219.156,229.569,219.749,229.569Z" transform="translate(-204.638 -227.626)" fill="#fff"/>
        <path id="Path_137" data-name="Path 137" d="M306.429,218.035l.216-1.187a2.652,2.652,0,0,1-.917.27c-.756,0-1.079-.594-1.079-1.241,0-1.3.648-2,1.4-2a1.8,1.8,0,0,1,.971.324l.162-1.133a3.8,3.8,0,0,0-1.241-.27c-1.241,0-1.943,1.079-1.943,3.13,0,1.349.108,2.267,1.4,2.267A4.844,4.844,0,0,0,306.429,218.035Z" transform="translate(-284.464 -212.8)" fill="#fff"/>
        <path id="Path_138" data-name="Path 138" d="M86.994,229.879a3.19,3.19,0,0,1,1.187-.216c.378,0,.7.054.7.378,0,.216-.054.27-.054.27h-.486c-.917,0-1.943.378-1.943,1.619,0,.971.648,1.187,1.025,1.187a1.622,1.622,0,0,0,1.133-.486l-.054.432h.971l.432-2.968c0-1.241-1.079-1.3-1.511-1.3m.81,2.321a1.767,1.767,0,0,1-1.3,1.025.421.421,0,0,1-.432-.432c0-.27.162-.648.971-.648A4.409,4.409,0,0,0,89.206,231.121Z" transform="translate(-81.543 -227.721)" fill="#fff"/>
        <path id="Path_139" data-name="Path 139" d="M136,230.717a4.568,4.568,0,0,0,1.241.108,1.383,1.383,0,0,0,1.619-1.4c0-1.349-1.3-1.079-1.3-1.619,0-.27.216-.378.594-.378.162,0,.756.054.756.054l.162-.971a4.1,4.1,0,0,0-1.025-.108c-.81,0-1.079.324-1.079,1.4,0,1.241.81,1.133.81,1.619,0,.324-.378.378-.648.378" transform="translate(-127.797 -225.483)" fill="#fff"/>
        <path id="Path_140" data-name="Path 140" d="M437.466,216.6a1.5,1.5,0,0,0-1.025-.54c-.971,0-1.3,1.187-1.3,2.59,0,.863-.108,1.781.81,1.781a1.441,1.441,0,0,0,1.025-.432l-.054.378h1.079l.81-5.181m-1.4,2.806c0,.594-.486,1.349-1.079,1.349-.378,0-.594-.324-.594-.863,0-.863.378-1.4.863-1.4A.825.825,0,0,1,437.413,218.006Z" transform="translate(-406.759 -215.038)" fill="#fff"/>
        <path id="Path_141" data-name="Path 141" d="M15.425,219.581l.648-3.886.108,3.886h.756l1.4-3.886-.594,3.886h1.133l.863-5.181H18.394l-1.511,3.184-.054-3.184h-.594L14.4,219.581Z" transform="translate(-14.4 -214.292)" fill="#fff"/>
        <path id="Path_142" data-name="Path 142" d="M260.8,233.01h1.133c.324-1.781.378-3.238,1.133-2.968a4.235,4.235,0,0,1,.378-1.241h-.216c-.486,0-.863.648-.863.648l.108-.594" transform="translate(-244.178 -227.721)" fill="#fff"/>
        <path id="Path_143" data-name="Path 143" d="M346.994,229.879a3.19,3.19,0,0,1,1.187-.216c.378,0,.7.054.7.378,0,.216-.054.27-.054.27h-.486c-.917,0-1.943.378-1.943,1.619,0,.971.648,1.187,1.025,1.187a1.622,1.622,0,0,0,1.133-.486l-.054.432h.971l.432-2.968c0-1.241-1.079-1.3-1.511-1.3m.81,2.321a1.767,1.767,0,0,1-1.3,1.025.421.421,0,0,1-.432-.432c0-.27.162-.648.971-.648A4.748,4.748,0,0,0,349.206,231.121Z" transform="translate(-324.003 -227.721)" fill="#fff"/>
        <path id="Path_144" data-name="Path 144" d="M395.2,233.01h1.133c.324-1.781.378-3.238,1.133-2.968a4.236,4.236,0,0,1,.378-1.241h-.216c-.486,0-.864.648-.864.648l.108-.594" transform="translate(-369.511 -227.721)" fill="#fff"/>
      </g>
    </g>
  </g>
</svg>
