<svg xmlns="http://www.w3.org/2000/svg" width="81.031" height="81.023" viewBox="0 0 81.031 81.023"><defs><style>.a{fill:#76b900;}</style></defs><g transform="translate(0)"><g transform="translate(0)"><path class="a" d="M10.988,22.91,3.016,19.832A9.849,9.849,0,1,0,7.253,9.165L15.125,12.2a5.741,5.741,0,1,1-4.138,10.71Z" transform="translate(15.665 39.492)"/><path class="a" d="M19.433,26.82a12.2,12.2,0,1,0-12.2-12.2A12.208,12.208,0,0,0,19.433,26.82Zm0-20.788a8.592,8.592,0,1,1-8.591,8.592A8.6,8.6,0,0,1,19.433,6.031Z" transform="translate(37.589 12.595)"/><path class="a" d="M-1196.347-3761.624q-.333,0-.66-.02h-8.961a1,1,0,0,1-1-1v-9.46c0-.047,0-.1,0-.143v-18.3l11.422,4.411v.093a16.608,16.608,0,0,0,16.6,16.613,16.612,16.612,0,0,0,16.6-16.613c0-.347-.012-.693-.037-1.035l10.789-8.134c.508.043,1.022.069,1.543.069a19.831,19.831,0,0,0,12.957-4.806,19.848,19.848,0,0,0,6.925-15.077,19.882,19.882,0,0,0-19.883-19.885,19.887,19.887,0,0,0-19.884,19.885l-9.284,12.388a16.562,16.562,0,0,0-12.3,5.761l-15.454-5.971v-29.17c0-.048,0-.1,0-.143v-9.479a1,1,0,0,1,1-1h9.373l.248,0h59.786l.248,0h9.375a1,1,0,0,1,1,1v69.4c0,.152,0,.3-.01.456v9.148a1,1,0,0,1-1,1h-8.952q-.328.02-.661.02Z" transform="translate(1206.969 3842.647)"/></g></g></svg>