<svg xmlns="http://www.w3.org/2000/svg" width="40" height="28" viewBox="0 0 40 28">
  <g id="VISA" transform="translate(-944 -420)">
    <rect id="Rectangle_74" data-name="Rectangle 74" width="40" height="28" rx="3" transform="translate(944 420)" fill="#fff"/>
    <g id="visa-2" data-name="visa" transform="translate(946 429)">
      <path id="Path_145" data-name="Path 145" d="M184.8,190.114l1.727-9.714h2.7l-1.673,9.714Z" transform="translate(-172.333 -180.076)" fill="#293688"/>
      <path id="Path_146" data-name="Path 146" d="M184.8,190.114l2.213-9.714h2.213l-1.673,9.714Z" transform="translate(-172.333 -180.076)" fill="#293688"/>
      <path id="Path_147" data-name="Path 147" d="M256.257,176.032a6.845,6.845,0,0,0-2.483-.432c-2.7,0-4.641,1.349-4.641,3.292,0,1.457,1.349,2.213,2.429,2.7s1.4.81,1.4,1.241c0,.648-.864.971-1.619.971a5.866,5.866,0,0,1-2.59-.54l-.378-.162L248,185.314a8.75,8.75,0,0,0,3.076.54c2.86,0,4.749-1.349,4.749-3.4,0-1.133-.7-2-2.321-2.7-.971-.486-1.565-.756-1.565-1.241,0-.432.486-.863,1.565-.863a4.95,4.95,0,0,1,2.051.378l.27.108.432-2.1Z" transform="translate(-231.27 -175.6)" fill="#293688"/>
      <path id="Path_148" data-name="Path 148" d="M256.257,176.032a6.845,6.845,0,0,0-2.483-.432c-2.7,0-4.156,1.349-4.156,3.292a2.821,2.821,0,0,0,1.943,2.7c1.079.486,1.4.81,1.4,1.241,0,.648-.864.971-1.619.971a5.866,5.866,0,0,1-2.59-.54l-.378-.162L248,185.314a8.75,8.75,0,0,0,3.076.54c2.86,0,4.749-1.349,4.749-3.4,0-1.133-.7-2-2.321-2.7-.971-.486-1.565-.756-1.565-1.241,0-.432.486-.863,1.565-.863a4.95,4.95,0,0,1,2.051.378l.27.108.432-2.1Z" transform="translate(-231.27 -175.6)" fill="#293688"/>
      <path id="Path_149" data-name="Path 149" d="M363.851,180.4c-.648,0-1.133.054-1.4.7l-4.048,9.013h2.914l.54-1.619h3.454l.324,1.619h2.59l-2.267-9.714Zm-1.241,6.476c.162-.486,1.079-2.86,1.079-2.86s.216-.594.378-.971l.162.917s.54,2.429.648,2.968H362.61Z" transform="translate(-334.222 -180.076)" fill="#3c58bf"/>
      <path id="Path_150" data-name="Path 150" d="M364.5,180.4c-.648,0-1.133.054-1.4.7l-4.7,9.013h2.914l.54-1.619h3.454l.324,1.619h2.59l-2.267-9.714Zm-1.889,6.476c.216-.54,1.079-2.86,1.079-2.86s.216-.594.378-.971l.162.917s.54,2.429.648,2.968H362.61Z" transform="translate(-334.222 -180.076)" fill="#293688"/>
      <path id="Path_151" data-name="Path 151" d="M55.248,187.946l-.27-1.4a7.823,7.823,0,0,0-3.778-4.263l2.429,8.635h2.914l4.371-9.714H58Z" transform="translate(-47.746 -180.822)" fill="#293688"/>
      <path id="Path_152" data-name="Path 152" d="M55.248,187.946l-.27-1.4a7.823,7.823,0,0,0-3.778-4.263l2.429,8.635h2.914l4.371-9.714H58.54Z" transform="translate(-47.746 -180.822)" fill="#293688"/>
      <path id="Path_153" data-name="Path 153" d="M0,180.4l.486.108c3.454.81,5.829,2.86,6.746,5.289L6.26,181.21c-.162-.648-.648-.81-1.241-.81Z" transform="translate(0 -180.076)" fill="#ffbc00"/>
      <path id="Path_154" data-name="Path 154" d="M0,180.4H0c3.454.81,6.314,2.914,7.232,5.343l-.917-3.832a1.317,1.317,0,0,0-1.3-1.025Z" transform="translate(0 -180.076)" fill="#f7981d"/>
      <path id="Path_155" data-name="Path 155" d="M0,180.4H0c3.454.81,6.314,2.914,7.232,5.343l-.648-2.1a1.9,1.9,0,0,0-1.133-1.565Z" transform="translate(0 -180.076)" fill="#ed7c00"/>
      <g id="Group_109" data-name="Group 109" transform="translate(3.508 1.403)">
        <path id="Path_156" data-name="Path 156" d="M58.692,201.8l-1.835-1.835-.863,2.051-.216-1.349A7.823,7.823,0,0,0,52,196.4l2.429,8.635h2.914Z" transform="translate(-52 -196.4)" fill="#293688"/>
        <path id="Path_157" data-name="Path 157" d="M187.552,291.575l-2.321-2.375-.432,2.375Z" transform="translate(-175.841 -282.94)" fill="#293688"/>
        <path id="Path_158" data-name="Path 158" d="M252.7,274.8h0c.216.216.324.378.27.594,0,.648-.863.971-1.619.971a5.866,5.866,0,0,1-2.59-.54l-.378-.162L248,277.876a8.75,8.75,0,0,0,3.076.54,5.343,5.343,0,0,0,3.94-1.349Z" transform="translate(-234.778 -269.511)" fill="#293688"/>
        <path id="Path_159" data-name="Path 159" d="M364,226.67h2.537l.54-1.619h3.454l.324,1.619h2.59l-.917-3.94-3.238-3.13.162.863s.54,2.429.648,2.968h-2.267c.216-.54,1.079-2.86,1.079-2.86s.216-.594.378-.971" transform="translate(-342.952 -218.035)" fill="#293688"/>
      </g>
    </g>
  </g>
</svg>
