<svg xmlns="http://www.w3.org/2000/svg" width="167.7" height="95" viewBox="0 0 167.7 95"><defs><style>.a{fill:#76b900;}</style></defs><g transform="translate(-587 -2726)"><g transform="translate(541.9 2701.7)"><path class="a" d="M191.7,24.3H66.1a2.006,2.006,0,0,0-2,2v82.5a2.006,2.006,0,0,0,2,2H191.7a2.006,2.006,0,0,0,2-2V26.3A2.006,2.006,0,0,0,191.7,24.3Zm0,84.5H66.1V26.3H191.7Z"/><path class="a" d="M181,115.1v-4.7H76.8v4.7H45.1v4.2H212.8v-4.2Z"/></g><g transform="translate(654.467 2739.5)"><g transform="translate(0 18.325)"><g transform="translate(0 0)"><path class="a" d="M0,53.808V64.142H14.467V52Z" transform="translate(0 -52)"/></g></g><g transform="translate(16.533 16)"><g transform="translate(0 0)"><path class="a" d="M256,18.067v12.4h16.533V16Z" transform="translate(-256 -16)"/></g></g><g transform="translate(16.533 32.533)"><path class="a" d="M256,272v12.4l16.533,2.067V272Z" transform="translate(-256 -272)"/></g><g transform="translate(0 32.533)"><path class="a" d="M0,272v10.333l14.467,1.808V272Z" transform="translate(0 -272)"/></g></g></g></svg>