<svg xmlns="http://www.w3.org/2000/svg" width="31.999" height="32" viewBox="0 0 31.999 32"><defs><style>.a{fill:#555;}</style></defs><g transform="translate(0 0)"><path class="a" d="M32,32H0V0H32V32ZM16,14.7c-2.238,0-4.5.024-6.729.072a2.862,2.862,0,0,0-2.8,2.862v7a2.863,2.863,0,0,0,2.8,2.863c2.227.048,4.491.072,6.729.072s4.5-.024,6.728-.072a2.862,2.862,0,0,0,2.8-2.863v-7a2.862,2.862,0,0,0-2.8-2.862C20.5,14.722,18.238,14.7,16,14.7ZM15.36,6.511a1.683,1.683,0,0,0-1.681,1.681v3.29a1.681,1.681,0,1,0,3.363,0V8.193A1.683,1.683,0,0,0,15.36,6.511Zm2.667.159v5.418a1.672,1.672,0,0,0,.077.473.7.7,0,0,0,.718.532,1.234,1.234,0,0,0,.235-.024,1.572,1.572,0,0,0,.746-.387c.083-.074.162-.154.245-.238l.009-.009.108-.109v.681h1.174V6.67H20.164v4.7c0,.005,0,.011,0,.016a.172.172,0,0,1-.018.1,1.24,1.24,0,0,1-.564.433.358.358,0,0,1-.117.021.264.264,0,0,1-.258-.248,1.114,1.114,0,0,1-.016-.191V6.67ZM9.5,4.429h0l.057.188c.688,2.282,1.169,3.875,1.429,4.735a.6.6,0,0,1,.024.172v3.481h1.232V9.524a.611.611,0,0,1,.024-.172c.183-.6.581-1.924,1.442-4.78l.043-.144H12.416l-.1.446c-.175.742-.5,2.123-.684,2.9-.1-.426-.316-1.334-.765-3.242l-.024-.1H9.5ZM22.209,25.453a1.672,1.672,0,0,1-.7-.143,1.519,1.519,0,0,1-.868-1.106,3.307,3.307,0,0,1-.083-.713c-.008-.83-.006-1.671,0-2.484v-.32A1.885,1.885,0,0,1,21,19.374a1.644,1.644,0,0,1,1.279-.556c.048,0,.1,0,.15,0a2.013,2.013,0,0,1,.5.091,1.39,1.39,0,0,1,.946,1.124,3.378,3.378,0,0,1,.064.636c.009.49,0,1.587,0,1.6h-2.2v1.575a.512.512,0,1,0,1.023,0v-.81h1.181v.006a5.581,5.581,0,0,1-.133,1.386,1.41,1.41,0,0,1-1.212.994A2.7,2.7,0,0,1,22.209,25.453Zm.043-5.554a.512.512,0,0,0-.512.512v.884h1.023v-.884A.512.512,0,0,0,22.252,19.9ZM12.739,25.37a1.051,1.051,0,0,1-.173-.015.661.661,0,0,1-.519-.413,1.569,1.569,0,0,1-.119-.661c0-.731,0-4.208,0-5.256v-.045H13.07c0,.037.006,3.069.007,4.761a1.251,1.251,0,0,0,.018.253.275.275,0,0,0,.269.249.383.383,0,0,0,.132-.025,1.24,1.24,0,0,0,.553-.433.2.2,0,0,0,.022-.116v-4.7l1.146,0v6.3H14.071v-.694l-.04.042-.046.05a2.079,2.079,0,0,1-.883.633A1.121,1.121,0,0,1,12.739,25.37Zm5.875-.011H18.6a1.289,1.289,0,0,1-.977-.445l-.111-.118v.479H16.364V16.739h1.147v2.809l0-.008a1.067,1.067,0,0,1,.12-.188,1.318,1.318,0,0,1,.661-.42,1.175,1.175,0,0,1,.285-.036.967.967,0,0,1,.9.576,2.2,2.2,0,0,1,.183.959c0,1.14,0,2.344,0,3.579a2.056,2.056,0,0,1-.095.658A.94.94,0,0,1,18.614,25.359Zm-.608-5.467a.611.611,0,0,0-.414.178.325.325,0,0,0-.079.117l0,3.79v.093l.037.049a.739.739,0,0,0,.4.246.615.615,0,0,0,.129.014.367.367,0,0,0,.383-.321.9.9,0,0,0,.021-.191V23.83c0-.542,0-1.1,0-1.654,0-.64,0-1.177,0-1.691a1.008,1.008,0,0,0-.08-.356.381.381,0,0,0-.344-.235A.519.519,0,0,0,18.005,19.891Zm-7.417,5.384H9.3V17.963H7.956V16.74H11.93v1.22H10.588v7.315ZM15.36,12.034a.485.485,0,0,1-.485-.485V8.126a.485.485,0,1,1,.97,0v3.423A.486.486,0,0,1,15.36,12.034Z" transform="translate(0 0)"/></g></svg>