<svg width="36" height="36" viewBox="0 0 36 36" fill="none" xmlns="http://www.w3.org/2000/svg">
<circle opacity="0.3" cx="18" cy="18" r="18" fill="#C9ADA7"/>
<path fill-rule="evenodd" clip-rule="evenodd" d="M13.9038 21.182C13.5133 21.5725 13.5133 22.2057 13.9038 22.5962C14.2943 22.9867 14.9275 22.9867 15.318 22.5962L18.5 19.4142L21.682 22.5962C22.0725 22.9867 22.7057 22.9867 23.0962 22.5962C23.4867 22.2057 23.4867 21.5725 23.0962 21.182L19.9142 18L23.0962 14.818C23.4867 14.4275 23.4867 13.7943 23.0962 13.4038C22.7057 13.0133 22.0725 13.0133 21.682 13.4038L18.5 16.5858L15.318 13.4038C14.9275 13.0133 14.2943 13.0133 13.9038 13.4038C13.5133 13.7943 13.5133 14.4275 13.9038 14.818L17.0858 18L13.9038 21.182Z" fill="#9A8C98"/>
</svg>
