<svg width="36" height="36" viewBox="0 0 36 36" fill="none" xmlns="http://www.w3.org/2000/svg">
<circle opacity="0.3" cx="18" cy="18" r="18" fill="#C9ADA7"/>
<path fill-rule="evenodd" clip-rule="evenodd" d="M12 13C12 12.4477 12.4477 12 13 12H24C24.5523 12 25 12.4477 25 13C25 13.5523 24.5523 14 24 14H13C12.4477 14 12 13.5523 12 13ZM12 18C12 17.4477 12.4477 17 13 17H24C24.5523 17 25 17.4477 25 18C25 18.5523 24.5523 19 24 19H13C12.4477 19 12 18.5523 12 18ZM13 22C12.4477 22 12 22.4477 12 23C12 23.5523 12.4477 24 13 24H24C24.5523 24 25 23.5523 25 23C25 22.4477 24.5523 22 24 22H13Z" fill="#9A8C98"/>
</svg>
