<svg width="36" height="36" viewBox="0 0 36 36" fill="none" xmlns="http://www.w3.org/2000/svg">
<path d="M18.0045 13.1198C15.1652 13.1198 12.875 15.3463 12.875 18.1068C12.875 20.8672 15.1652 23.0937 18.0045 23.0937C20.8437 23.0937 23.1339 20.8672 23.1339 18.1068C23.1339 15.3463 20.8437 13.1198 18.0045 13.1198ZM18.0045 21.349C16.1696 21.349 14.6696 19.895 14.6696 18.1068C14.6696 16.3186 16.1652 14.8646 18.0045 14.8646C19.8437 14.8646 21.3393 16.3186 21.3393 18.1068C21.3393 19.895 19.8393 21.349 18.0045 21.349V21.349ZM24.5402 12.9158C24.5402 13.5625 24.0044 14.079 23.3437 14.079C22.6786 14.079 22.1473 13.5582 22.1473 12.9158C22.1473 12.2734 22.683 11.7526 23.3437 11.7526C24.0044 11.7526 24.5402 12.2734 24.5402 12.9158ZM27.9375 14.0963C27.8616 12.5382 27.4955 11.158 26.3214 10.0208C25.1518 8.88367 23.7321 8.52777 22.1294 8.44965C20.4777 8.3585 15.5268 8.3585 13.875 8.44965C12.2768 8.52343 10.8571 8.87933 9.68303 10.0165C8.50892 11.1536 8.14731 12.5338 8.06696 14.092C7.97321 15.6979 7.97321 20.5113 8.06696 22.1172C8.14285 23.6753 8.50892 25.0555 9.68303 26.1927C10.8571 27.3299 12.2723 27.6858 13.875 27.7639C15.5268 27.855 20.4777 27.855 22.1294 27.7639C23.7321 27.6901 25.1518 27.3342 26.3214 26.1927C27.4911 25.0555 27.8571 23.6753 27.9375 22.1172C28.0312 20.5113 28.0312 15.7023 27.9375 14.0963V14.0963ZM25.8036 23.8403C25.4553 24.691 24.7812 25.3463 23.9018 25.6892C22.5848 26.197 19.4598 26.0799 18.0045 26.0799C16.5491 26.0799 13.4196 26.1927 12.1071 25.6892C11.2321 25.3507 10.558 24.6953 10.2053 23.8403C9.68303 22.5599 9.80356 19.5217 9.80356 18.1068C9.80356 16.6918 9.68749 13.6493 10.2053 12.3733C10.5536 11.5226 11.2277 10.8672 12.1071 10.5243C13.4241 10.0165 16.5491 10.1337 18.0045 10.1337C19.4598 10.1337 22.5893 10.0208 23.9018 10.5243C24.7768 10.8628 25.4509 11.5182 25.8036 12.3733C26.3259 13.6536 26.2053 16.6918 26.2053 18.1068C26.2053 19.5217 26.3259 22.5642 25.8036 23.8403Z" fill="#4A4E69"/>
</svg>
