<svg xmlns="http://www.w3.org/2000/svg" width="74.009" height="48.272" viewBox="0 0 74.009 48.272"><defs><style>.a{fill:#f2b64e;}.b{fill:#ffcf7d;}</style></defs><g transform="translate(-924.976 -2375.804)"><g transform="translate(924.976 2375.804)"><path class="a" d="M3,48.271a3,3,0,0,1-3-3V10.19a3,3,0,0,1,.152-.946H0V3.082A3.082,3.082,0,0,1,3.082,0h26.7c1.542,0,2.818,1.132,6.808,7.189H62.733a3,3,0,0,1,3,3V45.272a3,3,0,0,1-3,3Z"/><path class="b" d="M11.357,7.7h59.57a3.081,3.081,0,0,1,3.081,3.081L65.733,37.793a3.081,3.081,0,0,1-3.081,3.081H3.081A3.081,3.081,0,0,1,0,37.793L8.276,10.784A3.081,3.081,0,0,1,11.357,7.7Z" transform="translate(0 7.398)"/></g></g></svg>