<svg xmlns="http://www.w3.org/2000/svg" width="140.269" height="87.331" viewBox="0 0 140.269 87.331"><defs><style>.a{fill:#0b101e;}.b{fill:#fff;}.c{fill:#dedede;}</style></defs><g transform="translate(-1219.601 -2129.187)"><rect class="a" width="116.982" height="71.049" rx="5" transform="translate(1219.601 2129.187)"/><rect class="b" width="111.061" height="71.049" rx="5" transform="translate(1222.562 2129.187)"/><path class="a" d="M5,0H111.982a5,5,0,0,1,5,5V8.881a0,0,0,0,1,0,0H0a0,0,0,0,1,0,0V5A5,5,0,0,1,5,0Z" transform="translate(1219.601 2129.187)"/><path class="a" d="M0,0H116.982a0,0,0,0,1,0,0V3.881a5,5,0,0,1-5,5H5a5,5,0,0,1-5-5V0A0,0,0,0,1,0,0Z" transform="translate(1219.601 2191.354)"/><rect class="a" width="10.361" height="13.322" transform="translate(1272.935 2195.794)"/><rect class="a" width="66.608" height="7.401" transform="translate(1244.812 2209.116)"/><rect class="a" width="38.485" height="71.049" rx="5" transform="translate(1321.385 2145.389)"/><rect class="b" width="32.564" height="71.049" rx="5" transform="translate(1324.345 2145.389)"/><path class="a" d="M5,0H33.485a5,5,0,0,1,5,5V8.881a0,0,0,0,1,0,0H0a0,0,0,0,1,0,0V5A5,5,0,0,1,5,0Z" transform="translate(1321.385 2145.389)"/><path class="a" d="M0,0H38.485a0,0,0,0,1,0,0V3.881a5,5,0,0,1-5,5H5a5,5,0,0,1-5-5V0A0,0,0,0,1,0,0Z" transform="translate(1321.385 2207.557)"/><rect class="c" width="83" height="20" transform="translate(1231 2145)"/><rect class="c" width="25" height="20" transform="translate(1328 2158)"/><rect class="c" width="25" height="4" transform="translate(1328 2181)"/><rect class="c" width="25" height="4" transform="translate(1328 2189)"/><rect class="c" width="25" height="4" transform="translate(1328 2200)"/><rect class="c" width="29" height="16" transform="translate(1231 2168)"/><rect class="c" width="50" height="6" transform="translate(1264 2168)"/><rect class="c" width="50" height="6" transform="translate(1264 2176)"/></g></svg>