<svg xmlns="http://www.w3.org/2000/svg" xmlns:xlink="http://www.w3.org/1999/xlink" width="130.181" height="103.215" viewBox="0 0 130.181 103.215"><defs><style>.a{fill:#fff;}.b{fill:url(#a);}.c{fill:url(#b);}.d{fill:url(#g);}.e{fill:#7a5737;}.f{fill:url(#h);}.g{fill:url(#i);}.h{fill:url(#j);}</style><linearGradient id="a" x1="0.725" y1="0.5" x2="0.337" y2="0.5" gradientUnits="objectBoundingBox"><stop offset="0" stop-color="#ef317c"/><stop offset="1" stop-color="#fe7067"/></linearGradient><linearGradient id="b" y1="0.5" x2="0.988" y2="0.5" gradientUnits="objectBoundingBox"><stop offset="0" stop-color="#f76b1c"/><stop offset="1" stop-color="#fad961"/></linearGradient><linearGradient id="g" x1="0.102" y1="0.5" x2="0.826" y2="0.5" gradientUnits="objectBoundingBox"><stop offset="0" stop-color="#08aeea"/><stop offset="1" stop-color="#73ecb5"/></linearGradient><linearGradient id="h" x1="0.5" x2="0.5" y2="1" gradientUnits="objectBoundingBox"><stop offset="0" stop-color="#1c7494"/><stop offset="1" stop-color="#73ecb5"/></linearGradient><linearGradient id="i" x1="0.5" y1="0" x2="0.5" y2="1" xlink:href="#g"/><linearGradient id="j" x1="0.5" y1="0" x2="0.5" y2="1" xlink:href="#b"/></defs><g transform="translate(-239.652 -2353.465)"><rect class="a" width="113.811" height="62.078" transform="translate(246.395 2394.601)"/><rect class="b" width="90.382" height="12.746" transform="translate(258.109 2407.474)"/><rect class="c" width="45.191" height="2.317" transform="translate(258.109 2422.538)"/><rect class="c" width="45.191" height="2.317" transform="translate(258.109 2427.173)"/><rect class="c" width="45.191" height="2.317" transform="translate(258.109 2431.808)"/><rect class="c" width="45.191" height="2.317" transform="translate(258.109 2436.443)"/><rect class="c" width="45.191" height="2.317" transform="translate(258.109 2441.078)"/><rect class="d" width="42.873" height="20.857" transform="translate(305.617 2422.538)"/><g transform="translate(360.819 2353.465) rotate(39)"><path d="M.7,59.739H.648a.158.158,0,0,1-.109-.046C-1.437,57.909,2.655,3.646,2.7,3.1c0-.031.249-3.1,3.076-3.1S8.727,3.067,8.728,3.1c.043.549,4.278,54.878,2.383,56.6a.145.145,0,0,1-.1.043l-.056,0c-.363-2.149-2.567-3.769-5.127-3.769S1.063,57.589.7,59.738Z" transform="translate(0)"/><path class="e" d="M5.181,0a5.181,5.181,0,0,1,5.181,5.181,19.647,19.647,0,0,1-2.047,6.775C6.478,15.65,3.332,19.4,2.467,18.968,3.809,17.521,0,8.042,0,5.181A5.181,5.181,0,0,1,5.181,0Z" transform="translate(0.648 58.258)"/></g><path class="f" d="M13.106,2.714a2,2,0,0,1,3.392,0L27.691,20.623a2,2,0,0,1-1.7,3.06H3.608a2,2,0,0,1-1.7-3.06Z" transform="translate(239.652 2374.2)"/><path class="g" d="M22.019,2.5a2,2,0,0,1,3.328,0L45.293,32.415a2,2,0,0,1-1.664,3.109H3.737a2,2,0,0,1-1.664-3.109Z" transform="translate(257.415 2362.358)"/><circle class="h" cx="7.401" cy="7.401" r="7.401" transform="translate(255.934 2357.918)"/></g></svg>