<svg xmlns="http://www.w3.org/2000/svg" xmlns:xlink="http://www.w3.org/1999/xlink" width="124.393" height="101.392" viewBox="0 0 124.393 101.392"><defs><style>.a{fill:none;stroke:#f69834;stroke-dasharray:5;}.b{fill:#f69834;font-size:16px;font-family:Helvetica;}.c{fill:url(#a);}.d{fill:url(#b);}</style><linearGradient id="a" x1="0.5" x2="0.5" y2="2.08" gradientUnits="objectBoundingBox"><stop offset="0" stop-color="#ef317c"/><stop offset="1" stop-color="#fe7067"/></linearGradient><linearGradient id="b" y1="-1.078" x2="0.5" y2="1" xlink:href="#a"/></defs><line class="a" x2="100.652" transform="translate(0 28.864)"/><line class="a" x2="100.652" transform="translate(0 88.071)"/><line class="a" y2="97.692" transform="translate(31.084 3.7)"/><line class="a" y2="97.692" transform="translate(90.291 3.7)"/><text class="b" transform="translate(57.626 15)"><tspan x="-11.121" y="0">8pt</tspan></text><text class="b" transform="translate(112.392 62.366)"><tspan x="-11.121" y="0">8pt</tspan></text><circle class="c" cx="11.101" cy="11.101" r="11.101" transform="translate(51.066 35.524)"/><path class="d" d="M44.393,22.2H.014C0,21.93,0,21.689,0,21.463A20.97,20.97,0,0,1,6.5,6.286,22.448,22.448,0,0,1,22.2,0,22.45,22.45,0,0,1,37.9,6.286a20.969,20.969,0,0,1,6.5,15.177c0,.24,0,.488-.013.738Z" transform="translate(39.225 60.687)"/></svg>