<svg xmlns="http://www.w3.org/2000/svg" width="78" height="70.853" viewBox="0 0 78 70.853"><defs><style>.a{fill:#fcc69d;}.b{fill:#fff;}</style></defs><path class="a" d="M270.059,323.859l-18.262,9a12.685,12.685,0,0,0,8.869,2.665l.483-.04,8.358,8.358,11.05-9.529Zm0,0" transform="translate(-213.437 -274.52)"/><path class="a" d="M87.445,45.206a4.832,4.832,0,0,0,.517-.612,4.215,4.215,0,0,0-6.568-.761l1.491-1.491a4.218,4.218,0,0,0-5.966-5.965l1.491-1.492a4.218,4.218,0,1,0-5.965-5.965L61.6,39.765,38.089,64.63,24.211,78.508l13.9,6.511,15.54-15.6a25.3,25.3,0,0,0,16.971-7.393Zm0,0" transform="translate(-20.523 -23.466)"/><path class="a" d="M91.486,201.26l-4.117-4.117a4.218,4.218,0,1,0-5.966,5.965l4.118,4.117a4.218,4.218,0,1,0,5.965-5.966Zm0,0" transform="translate(-67.955 -166.062)"/><path class="a" d="M119.256,150.712l-6.165-6.165a4.218,4.218,0,0,0-5.965,5.966l6.164,6.164a4.218,4.218,0,1,0,5.966-5.965Zm0,0" transform="translate(-89.759 -121.479)"/><path class="b" d="M151,103.258,143.34,95.6a4.218,4.218,0,0,0-7.043,1.84,4.217,4.217,0,0,1,4.125,1.078l7.656,7.655a4.217,4.217,0,0,1,1.077,4.125,4.217,4.217,0,0,0,1.84-7.043Zm0,0" transform="translate(-115.533 -79.991)"/><path class="a" d="M147.2,122.414l-7.655-7.655a4.217,4.217,0,0,0-4.125-1.078,4.215,4.215,0,0,0,1.077,4.125l7.656,7.656a4.216,4.216,0,0,0,4.125,1.077A4.216,4.216,0,0,0,147.2,122.414Zm0,0" transform="translate(-114.657 -96.229)"/><path class="b" d="M180.977,55.8l-9.147-9.147a4.218,4.218,0,1,0-5.965,5.966l9.147,9.147a4.218,4.218,0,1,0,5.966-5.965Zm0,0" transform="translate(-139.549 -38.499)"/><path d="M473.9,309.421l-3.719-3.688a1.524,1.524,0,1,0-2.146,2.164l3.718,3.688a1.524,1.524,0,0,0,2.147-2.164Zm0,0" transform="translate(-396.354 -258.781)"/><path d="M443.124,280.939l0,0a1.524,1.524,0,1,0,2.157,0A1.522,1.522,0,0,0,443.121,280.941Zm0,0" transform="translate(-375.237 -237.761)"/><path d="M48.789,59.884a1.525,1.525,0,0,0-1.2-.441l-.483.04A11.122,11.122,0,0,1,40.746,58.1l.979-.982A23.674,23.674,0,0,0,57.052,50.2L71.833,35.422a5.738,5.738,0,0,0-2.769-9.653,5.744,5.744,0,0,0-4.233-8.078,5.733,5.733,0,0,0-4.472-7.453,5.744,5.744,0,0,0-8.2-6.849l-.147-.158A10.17,10.17,0,0,0,44.6,0H32.632a1.524,1.524,0,0,0-1.524,1.524v2a6.933,6.933,0,0,0,.394,2.31,5.742,5.742,0,0,0-7.653,7.108,5.742,5.742,0,0,0-4.479,7.454,5.743,5.743,0,0,0-4.229,8.075,5.742,5.742,0,0,0-2.77,9.656l3.04,3.04L.446,56.129A1.524,1.524,0,1,0,2.6,58.284l15.11-15.11a5.739,5.739,0,0,0,8.571-5.224c.077,0,.155.005.232.005a5.737,5.737,0,0,0,5.741-5.739c0-.077,0-.155-.005-.232.076,0,.152.005.229.005a5.738,5.738,0,0,0,5.742-5.739c0-.078,0-.155-.006-.232.076,0,.153.005.229.005a5.739,5.739,0,0,0,4.441-9.379L53,6.531a2.694,2.694,0,1,1,3.81,3.81l-6.9,6.9A1.524,1.524,0,1,0,52.064,19.4l5.411-5.411a2.695,2.695,0,0,1,3.811,3.81l-5.411,5.411a1.524,1.524,0,1,0,2.155,2.155l3.919-3.919a2.695,2.695,0,1,1,3.811,3.81l-3.92,3.92a1.524,1.524,0,1,0,2.155,2.155l1.874-1.874a2.695,2.695,0,0,1,3.809,3.812L54.9,48.05A20.642,20.642,0,0,1,41.006,54.1a1.521,1.521,0,0,0-1.024.448L26.327,68.254A1.523,1.523,0,0,0,28.485,70.4L38.529,60.324a14.159,14.159,0,0,0,8.6,2.213L54.992,70.4a1.524,1.524,0,1,0,2.155-2.156ZM34.155,3.048H44.6a7.112,7.112,0,0,1,5.189,2.26l.062.067-9.1,9.1-4.185-4.185a6.949,6.949,0,0,0,1.459.155h.033l4.182-.02a1.524,1.524,0,0,0-.007-3.048h-.007l-4.182.02h-.019a3.871,3.871,0,0,1-3.87-3.871Zm-11.7,37.039a2.693,2.693,0,0,1-3.81,0L14.526,35.97a2.695,2.695,0,1,1,3.81-3.811l4.118,4.117A2.7,2.7,0,0,1,22.454,40.087Zm6.755-7.871a2.695,2.695,0,0,1-4.6,1.906l-6.165-6.165a2.695,2.695,0,1,1,3.811-3.81l6.164,6.164A2.677,2.677,0,0,1,29.209,32.216Zm5.965-5.965a2.695,2.695,0,0,1-4.6,1.9L22.919,20.5a2.695,2.695,0,0,1,3.809-3.812l7.657,7.657A2.677,2.677,0,0,1,35.174,26.251Zm5.176-4.06a2.7,2.7,0,0,1-3.81,0l-7.656-7.656,0,0-1.489-1.489A2.695,2.695,0,0,1,31.2,9.232l9.147,9.147a2.7,2.7,0,0,1,0,3.811Zm0,0"/></svg>