<svg xmlns="http://www.w3.org/2000/svg" width="101.969" height="113.556" viewBox="0 0 101.969 113.556"><defs><style>.a{fill:#fff;}.a,.c,.e,.g{stroke:#707070;}.b,.d,.e{fill:#dedede;}.c,.f{fill:#b2b2b2;}.g,.i{fill:none;}.g{stroke-linecap:round;}.h,.j{stroke:none;}.j{fill:#707070;}</style></defs><g transform="translate(-252.315 -2012.505)"><g class="a" transform="translate(252.315 2070.442)"><rect class="h" width="101.969" height="55.62"/><rect class="i" x="0.5" y="0.5" width="100.969" height="54.62"/></g><rect class="b" width="90.382" height="12.746" transform="translate(258.109 2077.394)"/><rect class="b" width="45.191" height="2.317" transform="translate(258.109 2092.458)"/><rect class="b" width="45.191" height="2.317" transform="translate(258.109 2097.093)"/><rect class="b" width="45.191" height="2.317" transform="translate(258.109 2101.728)"/><rect class="b" width="45.191" height="2.317" transform="translate(258.109 2106.363)"/><rect class="b" width="45.191" height="2.317" transform="translate(258.109 2110.998)"/><rect class="b" width="42.873" height="20.857" transform="translate(305.617 2092.458)"/><g transform="translate(296.347 2012.505)"><g class="c" transform="translate(0 45.697)"><rect class="h" width="57.937" height="4.08" rx="2.04"/><rect class="i" x="0.5" y="0.5" width="56.937" height="3.08" rx="1.54"/></g><g class="d" transform="translate(21.557 23.869) rotate(20)"><path class="h" d="M 7.660300254821777 52.52537536621094 C 3.668520212173462 52.26717376708984 0.5000001192092896 48.9371337890625 0.5000001192092896 44.88119888305664 L 0.5000001192092896 8.160300254821777 C 0.5000001192092896 4.104489803314209 3.668700695037842 0.7747270464897156 7.660300254821777 0.5161364674568176 L 7.660300254821777 16.71761322021484 C 4.880377292633057 17.218505859375 2.764300107955933 19.9952507019043 2.764300107955933 23.25690078735352 C 2.764300107955933 26.51848411560059 4.880385875701904 29.29520797729492 7.660300254821777 29.79615783691406 L 7.660300254821777 52.52537536621094 Z"/><path class="j" d="M 7.160300254821777 51.9719352722168 L 7.160300254821777 30.19777679443359 C 4.351422309875488 29.46859359741211 2.264300107955933 26.59867286682129 2.264300107955933 23.25690078735352 C 2.264300107955933 19.91505432128906 4.351413249969482 17.04512214660645 7.160300254821777 16.31599044799805 L 7.160300254821777 1.069593071937561 C 3.683757543563843 1.557513952255249 1.00000011920929 4.551398277282715 1.00000011920929 8.160300254821777 L 1.00000011920929 44.88119888305664 C 1.00000011920929 48.48999404907227 3.683929204940796 51.4840202331543 7.160300254821777 51.9719352722168 M 8.160300254821777 53.04150009155273 L 8.159299850463867 53.04150009155273 C 3.660250186920166 53.04106140136719 1.274108853976941e-07 49.3803596496582 1.274108853976941e-07 44.88119888305664 L 1.274108853976941e-07 8.160300254821777 C 1.274108853976941e-07 3.660700082778931 3.660700082778931 4.577636403269025e-08 8.160300254821777 4.577636403269025e-08 L 8.160300254821777 17.15471076965332 C 5.414480209350586 17.3954906463623 3.264300107955933 20.0754508972168 3.264300107955933 23.25690078735352 C 3.264300107955933 26.43787002563477 5.414880275726318 29.11827087402344 8.160300254821777 29.35906982421875 L 8.160300254821777 53.04050064086914 L 8.160300254821777 53.04150009155273 Z"/></g><g class="d" transform="translate(28.712 26.66) rotate(-20)"><path class="h" d="M 0.4999953508377075 52.52537536621094 L 0.4999953508377075 29.79617500305176 C 3.279926776885986 29.29526519775391 5.396005153656006 26.51853179931641 5.396005153656006 23.25690078735352 C 5.396005153656006 19.99518394470215 3.279928922653198 17.21842956542969 0.5000051259994507 16.71759414672852 L 0.4999956488609314 0.5161365270614624 C 4.491595268249512 0.7747270464897156 7.660295486450195 4.104489803314209 7.660295486450195 8.160300254821777 L 7.660295486450195 44.88119888305664 C 7.660295486450195 48.9371337890625 4.491819381713867 52.26716995239258 0.4999953508377075 52.52537536621094 Z"/><path class="j" d="M 0.9999953508377075 51.971923828125 C 4.476442813873291 51.48401260375977 7.160295486450195 48.48999404907227 7.160295486450195 44.88119888305664 L 7.160295486450195 8.160300254821777 C 7.160295486450195 4.551398277282715 4.47653865814209 1.557514071464539 0.9999960064888 1.069593191146851 L 1.000004887580872 16.31596755981445 C 3.808900594711304 17.04504776000977 5.896005153656006 19.91498184204102 5.896005153656006 23.25690078735352 C 5.896005153656006 26.59872817993164 3.808882236480713 29.46865081787109 0.9999953508377075 30.19779777526855 L 0.9999953508377075 51.971923828125 M 0.0009953590342774987 53.04150009155273 L -4.64096046925988e-06 53.04150009155273 L -4.64096046925988e-06 53.04050064086914 L -4.64096046925988e-06 29.35907936096191 C 2.745825290679932 29.11828994750977 4.896005153656006 26.43832969665527 4.896005153656006 23.25690078735352 C 4.896005153656006 20.07579040527344 2.745425462722778 17.3953800201416 5.359039278118871e-06 17.15469932556152 L -4.64096046925988e-06 4.577636403269025e-08 C 4.500045299530029 4.577636403269025e-08 8.160295486450195 3.661139965057373 8.160295486450195 8.160300254821777 L 8.160295486450195 44.88119888305664 C 8.160295486450195 49.3803596496582 4.500045299530029 53.04106140136719 0.0009953590342774987 53.04150009155273 Z"/></g><g class="e" transform="translate(26.112)"><rect class="h" width="5.712" height="16.321" rx="2.856"/><rect class="i" x="0.5" y="0.5" width="4.712" height="15.321" rx="2.356"/></g><g class="f" transform="translate(20.4 13.056)"><path class="h" d="M 8.568053245544434 16.63637542724609 C 4.11931324005127 16.63637542724609 0.5000032186508179 13.01700592041016 0.5000032186508179 8.568185806274414 C 0.5000032186508179 4.119365692138672 4.11931324005127 0.4999957978725433 8.568053245544434 0.4999957978725433 C 10.7233829498291 0.4999957978725433 12.74953365325928 1.339185833930969 14.2732629776001 2.862985849380493 C 15.79696369171143 4.386765956878662 16.6361026763916 6.412915706634521 16.6361026763916 8.568185806274414 C 16.6361026763916 10.72345542907715 15.79696369171143 12.74960613250732 14.2732629776001 14.27338600158691 C 12.74953365325928 15.79718589782715 10.7233829498291 16.63637542724609 8.568053245544434 16.63637542724609 Z M 8.568053245544434 4.396225929260254 C 6.267613410949707 4.396225929260254 4.396073341369629 6.26775598526001 4.396073341369629 8.568185806274414 C 4.396073341369629 10.86861610412598 6.267613410949707 12.74014568328857 8.568053245544434 12.74014568328857 C 10.86896324157715 12.74014568328857 12.74088287353516 10.86861610412598 12.74088287353516 8.568185806274414 C 12.74088287353516 6.26775598526001 10.86896324157715 4.396225929260254 8.568053245544434 4.396225929260254 Z"/><path class="j" d="M 8.568053245544434 16.13637542724609 C 10.58982276916504 16.13637542724609 12.49041366577148 15.34919548034668 13.91970348358154 13.91983604431152 C 15.34897327423096 12.4904956817627 16.1361026763916 10.58990573883057 16.1361026763916 8.568185806274414 C 16.1361026763916 6.546465873718262 15.34897327423096 4.645875930786133 13.91970348358154 3.216535806655884 C 12.49041366577148 1.78717577457428 10.58982276916504 0.9999958276748657 8.568053245544434 0.9999958276748657 C 4.395013332366943 0.9999958276748657 1.000003218650818 4.395075798034668 1.000003218650818 8.568185806274414 C 1.000003218650818 12.74129581451416 4.395013332366943 16.13637542724609 8.568053245544434 16.13637542724609 M 8.568053245544434 3.896225690841675 C 11.14466285705566 3.896225690841675 13.24088287353516 5.992055892944336 13.24088287353516 8.568185806274414 C 13.24088287353516 11.14431571960449 11.14466285705566 13.24014568328857 8.568053245544434 13.24014568328857 C 5.991913318634033 13.24014568328857 3.896073341369629 11.14431571960449 3.896073341369629 8.568185806274414 C 3.896073341369629 5.992055892944336 5.991913318634033 3.896225690841675 8.568053245544434 3.896225690841675 M 8.568053245544434 17.13637542724609 C 3.843703269958496 17.13637542724609 3.245544348828844e-06 13.29269599914551 3.245544348828844e-06 8.568185806274414 C 3.245544348828844e-06 3.843675851821899 3.843703269958496 -4.193725544610061e-06 8.568053245544434 -4.193725544610061e-06 C 10.85696315765381 -4.193725544610061e-06 13.00866317749023 0.8912057876586914 14.62682342529297 2.509445905685425 C 16.2449836730957 4.127686023712158 17.1361026763916 6.279386043548584 17.1361026763916 8.568185806274414 C 17.1361026763916 10.8569860458374 16.2449836730957 13.00868606567383 14.62682342529297 14.62692546844482 C 13.00866317749023 16.24516487121582 10.85696315765381 17.13637542724609 8.568053245544434 17.13637542724609 Z M 8.568053245544434 4.896225929260254 C 6.543373107910156 4.896225929260254 4.896073341369629 6.543465614318848 4.896073341369629 8.568185806274414 C 4.896073341369629 10.59290599822998 6.543373107910156 12.24014568328857 8.568053245544434 12.24014568328857 C 10.59330368041992 12.24014568328857 12.24088287353516 10.59290599822998 12.24088287353516 8.568185806274414 C 12.24088287353516 6.543465614318848 10.59330368041992 4.896225929260254 8.568053245544434 4.896225929260254 Z"/></g><g class="f" transform="translate(22.843 41.612)"><path class="h" d="M 6.125251770019531 11.75072288513184 C 3.023481845855713 11.75072288513184 0.5000017881393433 9.227192878723145 0.5000017881393433 6.125362873077393 C 0.5000017881393433 3.023532867431641 3.023481845855713 0.5000028610229492 6.125251770019531 0.5000028610229492 C 7.628081798553467 0.5000028610229492 9.040771484375 1.085102915763855 10.10309219360352 2.147532939910889 C 11.16544151306152 3.209982872009277 11.75050163269043 4.622663021087646 11.75050163269043 6.125362873077393 C 11.75050163269043 7.628062725067139 11.16544151306152 9.040742874145508 10.10309219360352 10.10319328308105 C 9.040771484375 11.16562271118164 7.628081798553467 11.75072288513184 6.125251770019531 11.75072288513184 Z M 6.125251770019531 3.000292778015137 C 4.402121543884277 3.000292778015137 3.000261783599854 4.402193069458008 3.000261783599854 6.125362873077393 C 3.000261783599854 7.848532676696777 4.402121543884277 9.250432968139648 6.125251770019531 9.250432968139648 C 7.848841667175293 9.250432968139648 9.251091957092285 7.848532676696777 9.251091957092285 6.125362873077393 C 9.251091957092285 4.402193069458008 7.848841667175293 3.000292778015137 6.125251770019531 3.000292778015137 Z"/><path class="j" d="M 6.125251770019531 11.25072288513184 C 7.494511604309082 11.25072288513184 8.781641960144043 10.71763324737549 9.74952220916748 9.749662399291992 C 10.71744155883789 8.781642913818359 11.25050163269043 7.494513034820557 11.25050163269043 6.125362873077393 C 11.25050163269043 4.756212711334229 10.71744155883789 3.469082832336426 9.74952220916748 2.501062870025635 C 8.781641960144043 1.533092856407166 7.494511604309082 1.000002861022949 6.125251770019531 1.000002861022949 C 3.299181699752808 1.000002861022949 1.000001788139343 3.299232959747314 1.000001788139343 6.125362873077393 C 1.000001788139343 8.951493263244629 3.299181699752808 11.25072288513184 6.125251770019531 11.25072288513184 M 6.125251770019531 2.500292778015137 C 8.124542236328125 2.500292778015137 9.751091957092285 4.126492977142334 9.751091957092285 6.125362873077393 C 9.751091957092285 8.124233245849609 8.124542236328125 9.750432968139648 6.125251770019531 9.750432968139648 C 4.126421928405762 9.750432968139648 2.500261783599854 8.124233245849609 2.500261783599854 6.125362873077393 C 2.500261783599854 4.126492977142334 4.126421928405762 2.500292778015137 6.125251770019531 2.500292778015137 M 6.125251770019531 12.25072288513184 C 2.747761726379395 12.25072288513184 1.770019480318297e-06 9.502902984619141 1.770019480318297e-06 6.125362873077393 C 1.770019480318297e-06 2.747822761535645 2.747761726379395 2.873077391996048e-06 6.125251770019531 2.873077391996048e-06 C 7.761801719665527 2.873077391996048e-06 9.299901962280273 0.6371228694915771 10.45666217803955 1.793992877006531 C 11.61342144012451 2.950862884521484 12.25050163269043 4.489112854003906 12.25050163269043 6.125362873077393 C 12.25050163269043 7.761612892150879 11.61342144012451 9.299862861633301 10.45666217803955 10.45673274993896 C 9.299901962280273 11.61360263824463 7.761801719665527 12.25072288513184 6.125251770019531 12.25072288513184 Z M 6.125251770019531 3.500292778015137 C 4.677961826324463 3.500292778015137 3.500261783599854 4.677892684936523 3.500261783599854 6.125362873077393 C 3.500261783599854 7.572833061218262 4.677961826324463 8.750432968139648 6.125251770019531 8.750432968139648 C 7.573111534118652 8.750432968139648 8.751091957092285 7.572833061218262 8.751091957092285 6.125362873077393 C 8.751091957092285 4.677892684936523 7.573111534118652 3.500292778015137 6.125251770019531 3.500292778015137 Z"/></g><g class="c" transform="matrix(0.342, 0.94, -0.94, 0.342, 42.665, 57.609)"><rect class="h" width="12.24" height="4.08" rx="2.04"/><rect class="i" x="0.5" y="0.5" width="11.24" height="3.08" rx="1.54"/></g><path class="g" d="M4138.941,1463.571l3.634,9.89" transform="translate(-4094.108 -1393.743)"/><path class="g" d="M4142.576,1463.571l-3.634,9.89" transform="translate(-4129.476 -1393.743)"/></g></g></svg>