<svg xmlns="http://www.w3.org/2000/svg" width="16" height="16" viewBox="0 0 16 16"><defs><style>.a{fill:#7d634c;}.b{fill:none;}</style></defs><g transform="translate(0 16) rotate(-90)"><path class="a" d="M2,10.667A3.665,3.665,0,0,1,5.667,7h7a2.667,2.667,0,1,1,0,5.333H7A1.667,1.667,0,1,1,7,9h5v1.333H6.94c-.367,0-.367.667,0,.667h5.727a1.333,1.333,0,1,0,0-2.667h-7a2.333,2.333,0,0,0,0,4.667H12v1.333H5.667A3.665,3.665,0,0,1,2,10.667Z" transform="translate(-0.667 -2.333)"/><path class="b" d="M0,0H16V16H0Z"/></g></svg>