<svg xmlns="http://www.w3.org/2000/svg" width="74.009" height="72.159" viewBox="0 0 74.009 72.159"><defs><style>.a{fill:#ff26be;}.b{fill:#2e001f;}.c{fill:#ffd9f2;}</style></defs><path class="a" d="M60.9,72.159h-47.8A13.1,13.1,0,0,1,0,59.053V13.106A13.1,13.1,0,0,1,13.106,0H60.9A13.1,13.1,0,0,1,74.009,13.106V59.053A13.1,13.1,0,0,1,60.9,72.159Z"/><path class="b" d="M66.648,75.991H21.194A11.213,11.213,0,0,1,10,64.8v-43.6A11.213,11.213,0,0,1,21.194,10H66.617A11.193,11.193,0,0,1,77.811,21.194V64.767A11.173,11.173,0,0,1,66.648,75.991Z" transform="translate(-6.916 -6.916)"/><path class="c" d="M60.254,73.12l8.634,16.59c.154.247.062.493-.185.493H63.338a.605.605,0,0,1-.648-.4c-1.974-4.07-3.978-8.141-6.044-12.52h-.062c-1.85,4.132-3.885,8.48-5.859,12.551a.592.592,0,0,1-.555.339H45.082c-.308,0-.339-.247-.185-.432l8.449-16.1L45.174,57.363a.249.249,0,0,1,.185-.432h5.3a.486.486,0,0,1,.555.339c1.943,4.07,3.916,8.264,5.767,12.366h.062c1.789-4.071,3.762-8.3,5.674-12.335.154-.247.247-.4.555-.4h4.965c.247,0,.339.185.185.432ZM70.4,78.147c0-7.185,4.78-12.8,12.366-12.8a13.674,13.674,0,0,1,1.6.062V57.239a.309.309,0,0,1,.308-.308h4.872c.247,0,.308.093.308.247V85.486a21.964,21.964,0,0,0,.154,3.022c0,.185-.062.247-.247.339a18.368,18.368,0,0,1-7.894,1.789C75.179,90.667,70.4,86.534,70.4,78.147Zm13.969-7.894a4.664,4.664,0,0,0-1.789-.308c-3.885,0-6.6,2.991-6.6,7.956,0,5.674,2.775,7.956,6.26,7.956a5.818,5.818,0,0,0,2.128-.339Z" transform="translate(-30.989 -39.354)"/></svg>