<svg xmlns="http://www.w3.org/2000/svg" xmlns:xlink="http://www.w3.org/1999/xlink" width="112.832" height="110.072" viewBox="0 0 112.832 110.072"><defs><style>.a{fill:url(#a);}</style><linearGradient id="a" x1="0.5" x2="0.5" y2="1" gradientUnits="objectBoundingBox"><stop offset="0" stop-color="#832790"/><stop offset="1" stop-color="#5c5f68"/></linearGradient></defs><g transform="translate(0 -5.365)"><path class="a" d="M105.264,33.463A56.17,56.17,0,0,0,84.733,12.931,55.18,55.18,0,0,0,56.416,5.365,55.187,55.187,0,0,0,28.1,12.931,56.164,56.164,0,0,0,7.566,33.463,55.185,55.185,0,0,0,0,61.779,54.827,54.827,0,0,0,10.762,94.945a55.253,55.253,0,0,0,27.8,20.384,3.288,3.288,0,0,0,2.938-.514,2.873,2.873,0,0,0,.955-2.2q0-.22-.037-3.967t-.037-6.537l-1.69.292a21.552,21.552,0,0,1-4.077.257,31.062,31.062,0,0,1-5.105-.514,11.408,11.408,0,0,1-4.922-2.2,9.32,9.32,0,0,1-3.232-4.517l-.735-1.69a18.355,18.355,0,0,0-2.314-3.746,8.864,8.864,0,0,0-3.2-2.791L16.6,86.83a5.392,5.392,0,0,1-.955-.882,4.03,4.03,0,0,1-.661-1.028q-.221-.515.367-.846a4.764,4.764,0,0,1,2.13-.328l1.469.219a10.723,10.723,0,0,1,3.636,1.763,11.856,11.856,0,0,1,3.562,3.819,12.949,12.949,0,0,0,4.077,4.592,8.648,8.648,0,0,0,4.811,1.579,20.89,20.89,0,0,0,4.187-.366,14.61,14.61,0,0,0,3.305-1.1,11.9,11.9,0,0,1,3.6-7.567A50.3,50.3,0,0,1,38.6,85.358a29.979,29.979,0,0,1-6.9-2.866,19.776,19.776,0,0,1-5.914-4.921,23.651,23.651,0,0,1-3.856-7.713A36.678,36.678,0,0,1,20.42,58.84a21.426,21.426,0,0,1,5.8-15.133q-2.718-6.684.514-14.984,2.13-.662,6.317.991a44.167,44.167,0,0,1,6.134,2.829q1.947,1.174,3.122,1.983a53.052,53.052,0,0,1,28.209,0l2.791-1.762a39.533,39.533,0,0,1,6.757-3.233q3.893-1.468,5.952-.807,3.3,8.3.586,14.984a21.429,21.429,0,0,1,5.8,15.133,37.089,37.089,0,0,1-1.506,11.055,22.733,22.733,0,0,1-3.891,7.713,20.536,20.536,0,0,1-5.951,4.885,30.037,30.037,0,0,1-6.906,2.865,50.247,50.247,0,0,1-7.529,1.324q3.818,3.3,3.819,10.43v15.5a2.926,2.926,0,0,0,.919,2.2,3.19,3.19,0,0,0,2.9.513,55.246,55.246,0,0,0,27.8-20.384,54.838,54.838,0,0,0,10.761-33.166A55.23,55.23,0,0,0,105.264,33.463Z" transform="translate(0 0)"/></g></svg>