<svg xmlns="http://www.w3.org/2000/svg" width="74.009" height="74.009" viewBox="0 0 74.009 74.009"><defs><style>.a{fill:#6e64c3;}.b{fill:#5046af;}.c{fill:#fff;}</style></defs><ellipse class="a" cx="37.005" cy="37.004" rx="37.005" ry="37.004"/><path class="b" d="M149.612,104.984,139.4,100.858l-17.988,17.43-10.868-8.244-4.122,2.061.053,21.78L132.6,160.009a37.01,37.01,0,0,0,32.448-36.725q0-1.506-.12-2.983Z" transform="translate(-91.04 -86.279)"/><path class="c" d="M149.612,104.984,139.4,100.858l-17.988,17.43-10.868-8.244-4.122,2.061.053,21.78,4.122,2.061,10.868-8.244,17.988,17.43L149.665,141Zm-37.984,22.623v-9.226l5.1,4.613h.053Zm26.747,3.068-10.253-7.681h-.053l10.305-7.681v15.362Z" transform="translate(-91.04 -86.279)"/></svg>