<svg xmlns="http://www.w3.org/2000/svg" width="1271.9" height="103.4" viewBox="0 0 1271.9 103.4"><path d="M-2733.075,160-2792.621,94.6l45.044-36.988h36.036l-47.974,39.405L-2702.24,160Zm-42.335,0-19.922-21.9V160h-22.925V57.607h22.925v46.582L-2744.574,160Zm-97.177,0-19.995-26.953h-44.679V160h-22.924V110.122h16.992l-16.992-29.516V57.6H-2923l1.923.007q19.556.073,39.259.074a36.489,36.489,0,0,1,14.574,2.929A38.662,38.662,0,0,1-2847.1,80.752a38.648,38.648,0,0,1,2.929,14.574,39.2,39.2,0,0,1-2.929,14.648,38.136,38.136,0,0,1-19.483,19.775L-2844.1,160Zm-44.091-49.879h34.863a14.174,14.174,0,0,0,10.4-4.321,14.259,14.259,0,0,0,4.321-10.473,14.178,14.178,0,0,0-4.321-10.4,14.177,14.177,0,0,0-10.4-4.32h-51.929ZM-3071.059,160a32.047,32.047,0,0,1-12.89-2.637,34.084,34.084,0,0,1-17.8-17.8,32.045,32.045,0,0,1-2.636-12.891V91.3a31.7,31.7,0,0,1,2.636-12.89,33.752,33.752,0,0,1,17.8-17.8,32.046,32.046,0,0,1,12.89-2.636h49.439a32.043,32.043,0,0,1,12.89,2.636,33.753,33.753,0,0,1,17.8,17.8,32.49,32.49,0,0,1,2.563,12.89v35.376a32.838,32.838,0,0,1-2.563,12.891,34.085,34.085,0,0,1-17.8,17.8A32.044,32.044,0,0,1-3021.62,160Zm-10.327-68.7v35.376a10.088,10.088,0,0,0,3,7.362,9.9,9.9,0,0,0,7.324,3.039h27.686l-31.934-55.3Q-3081.386,84.927-3081.386,91.3Zm63.94,44.824q6.153-3.077,6.152-9.448V91.3a10.025,10.025,0,0,0-3.039-7.361,9.942,9.942,0,0,0-7.288-3.04h-27.685ZM-3187.572,160l-10.035-20.142L-3207.641,160h-20.434l-51.164-102.4h25.489l35.855,71.712,35.855-71.712h25.563l-28.385,56.77,7.47,14.941,35.856-71.712h25.562L-3167.138,160Zm-172.324,0V114.883h-37.28V91.958h97.412v22.925h-37.206V160Zm-85.752,0-20-26.953h-44.677V160h-22.924V110.122h16.991l-16.991-29.516V57.6h37.188l1.923.007q19.555.073,39.257.074A36.491,36.491,0,0,1-3440.3,60.61a38.657,38.657,0,0,1,20.141,20.142,38.625,38.625,0,0,1,2.93,14.574,39.181,39.181,0,0,1-2.93,14.648,38.13,38.13,0,0,1-19.482,19.775l22.485,30.25Zm-44.093-49.879h34.863a14.174,14.174,0,0,0,10.4-4.321,14.263,14.263,0,0,0,4.322-10.473,14.182,14.182,0,0,0-4.322-10.4,14.177,14.177,0,0,0-10.4-4.32h-51.928ZM-3688.5,160l57.349-102.393h19.995L-3553.813,160Zm39.111-22.925h56.543l-28.271-50.464ZM-3738.954,160l-1.832-2.2a31.49,31.49,0,0,1-10.913,1.9h-49.438a31.825,31.825,0,0,1-16.664-4.541,34.839,34.839,0,0,1-12.122-12.086,31.764,31.764,0,0,1-4.541-16.7V91.006a31.953,31.953,0,0,1,4.541-16.735A34.425,34.425,0,0,1-3817.8,62.185a32.026,32.026,0,0,1,16.664-4.5h49.438a32.026,32.026,0,0,1,16.663,4.5A34.12,34.12,0,0,1-3722.95,74.27a32.155,32.155,0,0,1,4.5,16.735v35.376a32.272,32.272,0,0,1-4.614,16.92l13.989,16.7Zm-69.47-76.355a10.022,10.022,0,0,0-3.04,7.361v35.376a10.023,10.023,0,0,0,3.04,7.362,9.94,9.94,0,0,0,7.288,3.039h49.438a9.94,9.94,0,0,0,7.288-3.039,10.027,10.027,0,0,0,3.04-7.362V91.006a10.026,10.026,0,0,0-3.04-7.361,9.94,9.94,0,0,0-7.288-3.039h-49.438A9.94,9.94,0,0,0-3808.424,83.645ZM-3972.509,160q0-22.925.073-26.075l44.238-53.466h-44.311V57.6h116.088V82.8l-44.238,54.273h44.238V160Zm27.173-22.925h15.161l46.07-56.616h-14.355Zm160.9-20.4a11,11,0,0,1-3.3-8.021,10.873,10.873,0,0,1,3.3-7.984,10.872,10.872,0,0,1,7.983-3.3,10.96,10.96,0,0,1,8.056,3.3,10.873,10.873,0,0,1,3.3,7.984,11,11,0,0,1-3.3,8.021,10.9,10.9,0,0,1-8.056,3.332A10.811,10.811,0,0,1-3784.437,116.678Zm559.657-26.551a10.877,10.877,0,0,1-3.3-7.984,11,11,0,0,1,3.3-8.02,10.815,10.815,0,0,1,7.984-3.332,10.933,10.933,0,0,1,8.02,3.332,10.93,10.93,0,0,1,3.333,8.02,10.812,10.812,0,0,1-3.333,7.984,10.992,10.992,0,0,1-8.02,3.3A10.873,10.873,0,0,1-3224.78,90.127Zm-172.4-9.668V57.6h97.412V80.459Z" transform="translate(3973.01 -57.1)" fill="#4c3e31" stroke="rgba(0,0,0,0)" stroke-width="1"/></svg>