<svg xmlns="http://www.w3.org/2000/svg" width="61.742" height="50.383" viewBox="0 0 61.742 50.383"><defs><style>.a{fill:#fff;}</style></defs><path class="a" d="M52.729,22.3a11.743,11.743,0,0,1-.683-3.449c-.918-5.05-4.08-5.981-5.073-5.876-7.057.627-8.932,8.8-6.162,16.172a1.557,1.557,0,0,1-2.352,1.829,25,25,0,0,0-8-3.554c-2.614-.784-5.332-1.777-7.161-3.92-1.411-1.673-1.777-3.816-2.927-5.593a7,7,0,0,0-4.913-3.032l-1.01-2.209c-.732-1.307-3.134-.963-3.4.448a8.407,8.407,0,0,0-.142,1.5c0,.052-.261.1-.261.157-.732.314-1.516.575-2.2.941a14.189,14.189,0,0,0-1.829,1.255,13.844,13.844,0,0,0-3.084,3.659c-.209.418-.418.784-.627,1.2a17.4,17.4,0,0,0-1.1,3.293c-.47,2.248-.523,5.123,1.411,6.691a7.584,7.584,0,0,0,4.757,1.359c.366,0,3.92,0,3.92-.1,0,1.337-1.743,8.452-1.933,13.488-.082,2.174-.482,4.338,1.933,4.958,1.946.367,3.185-1.722,4.058-3.65.666-1.308,1.692-4.133,2.529-5.074a7.015,7.015,0,0,1,2.614-2.2,7.309,7.309,0,0,1,1.568.053c-.052.1-5.384,3.816-5.384,8.363,0,4.6,3.554,8.729,3.554,8.729a4.949,4.949,0,0,0-4.443,2.4c-.314.627-.314,2.091.68,2.091h26.03a20.351,20.351,0,0,0,5.593-.784,18.108,18.108,0,0,0,5.907-3.032c8.155-6.011,11.6-18.034,5.75-26.816C58.165,28.262,54.088,26.224,52.729,22.3Z" transform="translate(-1.544 -11.856)"/></svg>