<svg xmlns="http://www.w3.org/2000/svg" width="180" height="180" viewBox="0 0 180 180"><defs><style>.a{fill:#fff;}.b{fill:#222;}</style></defs><g transform="translate(-6181 -6590)"><rect class="a" width="180" height="180" transform="translate(6181 6590)"/><g transform="translate(6215 6615)"><path class="b" d="M52.828,36.6a.318.318,0,0,0,.085,0,.775.775,0,0,0,.775-.686A34.7,34.7,0,0,1,84.177,5.42a.775.775,0,0,0,.678-.844A.74.74,0,0,0,84.01,3.9,36.261,36.261,0,0,0,52.154,35.754.775.775,0,0,0,52.828,36.6Z" transform="translate(-31.952 -2.38)"/><path class="b" d="M156.076,104.539a.709.709,0,0,0-.844.678,34.556,34.556,0,0,1-48.2,27.836.775.775,0,1,0-.616,1.4,36.082,36.082,0,0,0,50.35-29.071A.775.775,0,0,0,156.076,104.539Z" transform="translate(-64.846 -64.038)"/><path class="b" d="M88.394,95.255a.775.775,0,0,0-.775-.775H62.445a.775.775,0,1,0,0,1.549H87.62A.775.775,0,0,0,88.394,95.255Z" transform="translate(-37.785 -57.883)"/><path class="b" d="M170.286,62.767a19.981,19.981,0,0,1,3.428,11.48H159.535a.775.775,0,1,0,0,1.549H173.6a19.853,19.853,0,0,1-3.315,9.489.775.775,0,0,0,1.27.864,21.41,21.41,0,0,0,3.563-10.368H184.7a.775.775,0,0,0,0-1.549h-9.454a21.5,21.5,0,0,0-3.7-12.344.775.775,0,1,0-1.263.864Z" transform="translate(-97.271 -37.642)"/><path class="b" d="M140,39.177a.747.747,0,0,0,.817.709A20.02,20.02,0,0,1,153.487,43.3a.768.768,0,0,0,.864-1.27,21.581,21.581,0,0,0-13.641-3.676A.775.775,0,0,0,140,39.177Z" transform="translate(-85.774 -23.464)"/><path class="b" d="M113.572,113.4a.775.775,0,0,0,.542-.225l6.937-6.937a.775.775,0,1,0-1.084-1.084l-6.937,6.937a.775.775,0,0,0,0,1.084.751.751,0,0,0,.542.225Z" transform="translate(-69.117 -64.231)"/><path class="b" d="M161.851,61.06l-8.331,8.331a.767.767,0,0,0,1.084,1.084l8.331-8.331a.775.775,0,1,0-1.084-1.084Z" transform="translate(-93.925 -37.217)"/><path class="b" d="M181.924,54.2a2.057,2.057,0,1,0-1.458.606A2.06,2.06,0,0,0,181.924,54.2Z" transform="translate(-109.307 -31.048)"/><path class="b" d="M128.084,36.891a2.06,2.06,0,1,0,2.514,1.445,2.06,2.06,0,0,0-2.514-1.445Z" transform="translate(-77.537 -22.556)"/><path class="b" d="M103.114,127.174a2.057,2.057,0,1,0,1.456-.6,2.061,2.061,0,0,0-1.456.6Z" transform="translate(-62.807 -77.544)"/><path class="b" d="M181,126.638a2.06,2.06,0,1,0,1.456,2.525A2.06,2.06,0,0,0,181,126.638Z" transform="translate(-109.305 -77.543)"/><path class="b" d="M141.464,4.119A2.064,2.064,0,1,0,139.4,2.054,2.064,2.064,0,0,0,141.464,4.119Z" transform="translate(-85.409 0.01)"/><circle class="b" cx="4.074" cy="4.074" r="4.074" transform="translate(51.981 33.297)"/><circle class="b" cx="2.06" cy="2.06" r="2.06" transform="translate(18.684 35.311)"/><path class="b" d="M232.618,91.16a2.064,2.064,0,1,0,2.06,2.06A2.064,2.064,0,0,0,232.618,91.16Z" transform="translate(-141.256 -55.849)"/><path class="b" d="M96.918,170.381a2.06,2.06,0,1,0,.751,2.816A2.06,2.06,0,0,0,96.918,170.381Z" transform="translate(-57.486 -104.217)"/><path class="b" d="M11.38,313.39l.945-1.081a4.8,4.8,0,0,0,3.416,1.549c1.623,0,2.6-.809,2.6-2.026s-.914-1.673-2.076-2.2l-1.789-.775a3.482,3.482,0,0,1-2.521-3.176c0-1.909,1.658-3.3,3.908-3.3a5.062,5.062,0,0,1,3.648,1.549l-.825,1a4.024,4.024,0,0,0-2.823-1.162c-1.406,0-2.324.713-2.324,1.828,0,1.2,1.081,1.654,2.045,2.06l1.774.775c1.437.627,2.552,1.472,2.552,3.315,0,1.96-1.623,3.517-4.21,3.517a5.926,5.926,0,0,1-4.322-1.878Z" transform="translate(-6.972 -185.268)"/><path class="b" d="M43.73,315.5c0-3.06,2.01-4.834,4.26-4.834s4.26,1.774,4.26,4.834-2.014,4.8-4.26,4.8S43.73,318.544,43.73,315.5Zm6.929,0c0-2.111-1.081-3.548-2.669-3.548s-2.657,1.437-2.657,3.548,1.069,3.517,2.657,3.517S50.659,317.618,50.659,315.5Z" transform="translate(-26.793 -190.341)"/><path class="b" d="M78.09,311.889V300.27h1.549V312c0,.473.2.658.438.658a1.3,1.3,0,0,0,.321-.035l.221,1.185a2.351,2.351,0,0,1-.895.136C78.563,313.934,78.09,313.191,78.09,311.889Z" transform="translate(-47.845 -183.969)"/><path class="b" d="M95.16,317.691c0-1.995,1.739-2.994,5.647-3.432,0-1.185-.387-2.324-1.894-2.324a5.055,5.055,0,0,0-2.758.98l-.608-1.065a6.886,6.886,0,0,1,3.617-1.2c2.231,0,3.18,1.5,3.18,3.768v5.662h-1.27l-.136-1.1h-.031a4.9,4.9,0,0,1-3.04,1.321A2.506,2.506,0,0,1,95.16,317.691Zm5.647.151v-2.568c-3.1.387-4.144,1.131-4.144,2.324,0,1.05.713,1.472,1.623,1.472A3.754,3.754,0,0,0,100.807,317.842Z" transform="translate(-58.304 -190.329)"/><path class="b" d="M127.349,310.9h1.267l.136,1.673h.05a3.178,3.178,0,0,1,2.6-1.909,1.964,1.964,0,0,1,.98.2l-.287,1.356a2.131,2.131,0,0,0-.895-.155c-.775,0-1.708.542-2.324,2.115v5.906H127.33Z" transform="translate(-78.014 -190.336)"/><path class="b" d="M167.413,304.313H163.66V303h9.079v1.332h-3.753v11.062h-1.572Z" transform="translate(-100.273 -185.642)"/><path class="b" d="M193.57,315.5c0-2.975,2.01-4.834,4.14-4.834,2.324,0,3.652,1.693,3.652,4.311a5.855,5.855,0,0,1-.07.879h-6.2a3.041,3.041,0,0,0,3.044,3.211,3.943,3.943,0,0,0,2.3-.728l.558,1.015a5.422,5.422,0,0,1-3.04.949C195.53,320.306,193.57,318.544,193.57,315.5Zm6.441-.775c0-1.844-.844-2.839-2.281-2.839-1.305,0-2.452,1.046-2.638,2.839Z" transform="translate(-118.599 -190.341)"/><path class="b" d="M223.87,315.5c0-3.06,2.08-4.834,4.427-4.834a3.927,3.927,0,0,1,2.688,1.081l-.794,1.015a2.711,2.711,0,0,0-1.824-.809c-1.673,0-2.893,1.437-2.893,3.548s1.162,3.517,2.843,3.517a3.218,3.218,0,0,0,2.161-.914l.678,1.034a4.454,4.454,0,0,1-2.975,1.162C225.745,320.306,223.87,318.544,223.87,315.5Z" transform="translate(-137.163 -190.341)"/><path class="b" d="M253.988,300.24h1.549v3.683l-.054,1.894a4.334,4.334,0,0,1,3.044-1.549c1.937,0,2.808,1.251,2.808,3.6v5.81h-1.549v-5.6c0-1.724-.523-2.452-1.739-2.452a3.484,3.484,0,0,0-2.518,1.4V313.7H253.98Z" transform="translate(-155.611 -183.951)"/><path class="b" d="M0,248.782a10.508,10.508,0,0,0,.879-4.311l.86.1a10.987,10.987,0,0,1-.895,4.6Zm2.366-7.572h1.2v15.434h-1.2Zm2.366,6.321a14.621,14.621,0,0,0-1.05-3.261l.775-.306a12.8,12.8,0,0,1,1.115,3.2Zm10.9,7.405v1.181H4.613v-1.181h6.972c.387-2.181.844-5.422,1.115-8.133H8.521l-.136.809a17.816,17.816,0,0,1,3.567,1.979l-.627.879a18.378,18.378,0,0,0-3.145-1.878c-.136.627-.252,1.22-.387,1.809a20.616,20.616,0,0,1,3.583,2.2l-.693.86a20.527,20.527,0,0,0-3.1-2.08c-.155.693-.306,1.321-.442,1.859l-1.232-.116c.624-2.417,1.472-6.611,1.96-9.7H5.205V242.26H15.4v1.162H9.144c-.116.709-.252,1.468-.407,2.246H14.1c-.341,2.924-.829,6.813-1.236,9.264Z" transform="translate(0 -147.784)"/><path class="b" d="M65.6,256.2v1.127H50.942v-1.115h6.7v-1.828H52.921v-1.015h4.717v-1.588H53.494a15.823,15.823,0,0,1-1.739,1.875,5.688,5.688,0,0,0-1.065-.794,10.632,10.632,0,0,0,3.1-3.873l1.236.337a12.737,12.737,0,0,1-.775,1.371h3.381v-1.356h1.282V250.7h5.62v1.081H58.92v1.588h4.919v1.015H58.92v1.828Zm-1.724-7.235H52.685V243H63.874Zm-1.267-4.954h-8.7v1.472h8.7Zm0,2.432h-8.7v1.507h8.7Z" transform="translate(-31.057 -148.88)"/><path class="b" d="M101.785,252.2a21.15,21.15,0,0,1-.844,4.074,5.421,5.421,0,0,0-.91-.337,20.674,20.674,0,0,0,.775-3.873Zm3.346-4.547a27.442,27.442,0,0,1,1.135,3.23l-.949.387c-.05-.236-.132-.523-.2-.809-3.769.589-4.291.709-4.6.875a5.524,5.524,0,0,0-.356-1.1c.341-.07.713-.492,1.2-1.135a21.515,21.515,0,0,0,1.387-1.975,9.127,9.127,0,0,0-2.324.387,8.55,8.55,0,0,0-.356-1.081c.256-.066.558-.422.895-.93a22.22,22.22,0,0,0,2.165-4.26l1.065.457a26.522,26.522,0,0,1-2.552,4.531l1.774-.17a26.088,26.088,0,0,0,1.236-2.324l.98.593a32.289,32.289,0,0,1-3.718,5.612l2.924-.407c-.186-.542-.387-1.081-.593-1.572ZM103.458,252a32.428,32.428,0,0,1,.476,3.548l-.949.236a32.534,32.534,0,0,0-.422-3.617Zm1.758-.442a24.5,24.5,0,0,1,.984,3.246l-.864.321a25.673,25.673,0,0,0-.945-3.281Zm9.872,3.718c0,.693-.136,1-.573,1.2a5.67,5.67,0,0,1-2.13.221,4,4,0,0,0-.321-1.115c.709.035,1.387,0,1.588,0s.287-.081.287-.321v-12.1h-6.321v13.556h-1.131V242.044h8.6Zm-2.711-2.789a4.74,4.74,0,0,0,1-.085c.035.29.066.678.1.933a4.773,4.773,0,0,1-1.081.081h-2.165c-1.115,0-1.367-.387-1.367-1.518v-1.642h-.627v-1.007h2.3a9.915,9.915,0,0,0-.662-1.487l.775-.306h-2.587v-1h3.215a18.817,18.817,0,0,0,.775-2.792l.93.271c-.256.829-.577,1.793-.844,2.521h1.441v1h-2.827a14.51,14.51,0,0,1,.744,1.522l-.608.271h2.5v1h-3.486V251.9c0,.438.05.573.387.573Zm-2.959-8.838a8.134,8.134,0,0,1,.91,2.4l-.809.29a9.221,9.221,0,0,0-.879-2.421Z" transform="translate(-61.288 -147.808)"/><path class="b" d="M164.059,243.215a12.855,12.855,0,0,1-2.471,4.5,11.375,11.375,0,0,0,3.854,2.483,4.649,4.649,0,0,0-.775,1.03c-.17-.085-.356-.167-.542-.252v5.577h-1.2v-.558H158.7v.6h-1.162v-5.639c-.337.182-.678.337-1.015.488a3.5,3.5,0,0,0-.608-.844H154.14v3.025c.724-.167,1.468-.337,2.212-.523l.12,1.131c-2.3.558-4.7,1.135-6.472,1.572l-.24-1.216.864-.186v-5.763h1.065v5.542l1.3-.3v-6.832h-2.363v-5.171h5.461v4.481a12.247,12.247,0,0,0,3.056-5.19l1.2.287c-.17.492-.356.98-.542,1.437h3.261l.221-.05Zm-12.324,2.738h3.176v-2.959h-3.176Zm4.477,4.342a11.956,11.956,0,0,0,3.838-2.638,15.492,15.492,0,0,1-1.549-2.324,12.7,12.7,0,0,1-1.549,1.937,6.664,6.664,0,0,0-.879-.744v.5h-1.937v2.436h2.076Zm7.119.24a12.8,12.8,0,0,1-2.5-2,13.425,13.425,0,0,1-2.537,2Zm-.407,4.342v-3.246H158.7v3.246Zm-3.652-10.868-.167.321a13.6,13.6,0,0,0,1.673,2.533,10.969,10.969,0,0,0,1.739-2.854Z" transform="translate(-91.757 -147.759)"/><path class="b" d="M205.063,251.319c-.29-.558-1-1.658-1.572-2.518v7.82h-1.236v-7.467a17.817,17.817,0,0,1-2.452,4.411,5.64,5.64,0,0,0-.624-1.131,17.189,17.189,0,0,0,2.9-5.31h-2.669v-1.181h2.839v-2.552c-.775.151-1.572.287-2.324.387a5.746,5.746,0,0,0-.387-.98,25.483,25.483,0,0,0,5.376-1.352l.775,1a15.186,15.186,0,0,1-2.212.674v2.823h2.483v1.181h-2.483v.306c.523.593,1.975,2.452,2.324,2.909Zm7.638.895v4.408h-1.232v-4.2l-5.511.91-.2-1.2,5.713-.91V241.21H212.7v9.8l1.979-.3.186,1.162Zm-3.261-2.246a14.559,14.559,0,0,0-2.975-2.471l.775-.744a14.892,14.892,0,0,1,3.025,2.386Zm.387-4.466a13.252,13.252,0,0,0-2.688-2.4l.794-.728a12.448,12.448,0,0,1,2.754,2.324Z" transform="translate(-122.036 -147.784)"/><path class="b" d="M254.909,249.758l-2.026.608v4.783c0,.709-.186,1.05-.627,1.251a5.959,5.959,0,0,1-2.3.221,4.008,4.008,0,0,0-.387-1.162c.813.019,1.549.019,1.739,0s.341-.085.341-.321v-4.4l-2.03.593-.352-1.236c.674-.151,1.487-.352,2.382-.608v-3.7h-2.165v-1.162h2.165v-3.381h1.236v3.381h1.859v1.162h-1.859v3.346c.608-.17,1.251-.356,1.859-.542Zm8.993-1.894a12.348,12.348,0,0,1-3.432,5.562,11.557,11.557,0,0,0,4.361,2.181,5.115,5.115,0,0,0-.809,1.081,12.173,12.173,0,0,1-4.516-2.448,15.551,15.551,0,0,1-4.8,2.417,4.646,4.646,0,0,0-.678-1.135,13.765,13.765,0,0,0,4.582-2.146,13.491,13.491,0,0,1-2.773-4.648h-.507v-1.162h3.617v-2.521h-3.954v-1.162h3.954V241.23h1.236v2.653h4.04v1.162h-4.04v2.521h2.688l.2-.054Zm-6.828.864a11.619,11.619,0,0,0,2.483,3.873,10.287,10.287,0,0,0,2.711-3.873Z" transform="translate(-152.726 -147.796)"/></g></g></svg>