<svg id="ic_announce" xmlns="http://www.w3.org/2000/svg" width="24" height="24" viewBox="0 0 24 24">
  <defs>
    <style>
      .cls-1 {
        fill: rgba(255,255,255,0);
      }

      .cls-2 {
        fill: rgba(255,255,255,0.4);
      }
    </style>
  </defs>
  <rect id="Rectangle_91" data-name="Rectangle 91" class="cls-1" width="24" height="24"/>
  <path id="bullhorn-solid" class="cls-2" d="M18,1a1.01,1.01,0,0,0-1-1,1,1,0,0,0-.624.219L13.718,2.345A10.678,10.678,0,0,1,8,4H2A2,2,0,0,0,0,6V9a2,2,0,0,0,2,2H3.053a7.594,7.594,0,0,0-.068,1,7.916,7.916,0,0,0,.8,3.467A.981.981,0,0,0,4.671,16H6.992A.994.994,0,0,0,7.8,14.42,3.98,3.98,0,0,1,6.985,12a3.782,3.782,0,0,1,.138-1H8a10.676,10.676,0,0,1,5.718,1.655l2.657,2.126A1,1,0,0,0,18,14Z" transform="translate(3 4)"/>
</svg>
