<svg id="ic_cup" xmlns="http://www.w3.org/2000/svg" width="24" height="24" viewBox="0 0 24 24">
  <defs>
    <style>
      .cls-1 {
        fill: rgba(255,255,255,0);
      }

      .cls-2 {
        fill: rgba(255,255,255,0.4);
      }
    </style>
  </defs>
  <rect id="Rectangle_91" data-name="Rectangle 91" class="cls-1" width="24" height="24"/>
  <path id="Path_391" data-name="Path 391" class="cls-2" d="M418.927,829.219c.859-.26,3.691-1.325,3.615-4.035-.063-2.176-1.912-3.053-3.3-3.3v-1.036a.75.75,0,0,0-.75-.75h-9.407a.75.75,0,0,0-.75.75v1.038c-1.388.249-3.227,1.127-3.288,3.3-.081,2.844,3.037,3.875,3.722,4.067a6.046,6.046,0,0,0,2.952,3.219v1.163h-3.04a.75.75,0,0,0-.75.75v.326a.75.75,0,0,0,.75.75h10.215a.75.75,0,0,0,.75-.75v-.326a.75.75,0,0,0-.75-.75h-2.825v-1.1A5.1,5.1,0,0,0,418.927,829.219Zm.334-5.8a2.014,2.014,0,0,1,1.781,1.8,2.625,2.625,0,0,1-1.781,2.258Zm-10.935,4.062a2.624,2.624,0,0,1-1.781-2.258,2.012,2.012,0,0,1,1.781-1.8Z" transform="translate(-402.043 -816.099)"/>
</svg>
