<svg id="ic_crown" xmlns="http://www.w3.org/2000/svg" width="32" height="32" viewBox="0 0 32 32">
  <path id="crown" d="M724.155,387.743l-6.922,5.659a.958.958,0,0,1-1.513-.435l-3.551-10.512a.957.957,0,0,0-1.814,0L706.8,392.99a.958.958,0,0,1-1.513.435l-6.95-5.682a.957.957,0,0,0-1.51,1.056l5.271,15.138a.139.139,0,0,0,.133.094h18.034a.139.139,0,0,0,.133-.094l5.272-15.138A.958.958,0,0,0,724.155,387.743Z" transform="translate(-695.453 -377.254)" fill="#ffba0d"/>
  <rect id="Frame" width="32" height="32" fill="#fff" opacity="0"/>
</svg>
