<svg xmlns="http://www.w3.org/2000/svg" id="ic_calendar" width="12" height="12" viewBox="0 0 12 12">
    <path id="calendar-alt-regular" fill="#00ffb5" d="M3.964 6.75H2.893a.3.3 0 0 1-.321-.281v-.938a.3.3 0 0 1 .321-.281h1.071a.3.3 0 0 1 .321.281v.938a.3.3 0 0 1-.321.281zm2.893-.281v-.938a.3.3 0 0 0-.321-.281H5.464a.3.3 0 0 0-.321.281v.938a.3.3 0 0 0 .321.281h1.072a.3.3 0 0 0 .321-.281zm2.571 0v-.938a.3.3 0 0 0-.321-.281H8.036a.3.3 0 0 0-.321.281v.938a.3.3 0 0 0 .321.281h1.071a.3.3 0 0 0 .322-.281zm-2.571 2.25v-.938a.3.3 0 0 0-.321-.281H5.464a.3.3 0 0 0-.321.281v.937A.3.3 0 0 0 5.464 9h1.072a.3.3 0 0 0 .321-.281zm-2.571 0v-.938a.3.3 0 0 0-.322-.281H2.893a.3.3 0 0 0-.321.281v.937A.3.3 0 0 0 2.893 9h1.071a.3.3 0 0 0 .322-.281zm5.143 0v-.938a.3.3 0 0 0-.322-.281H8.036a.3.3 0 0 0-.321.281v.937A.3.3 0 0 0 8.036 9h1.071a.3.3 0 0 0 .322-.281zM12 2.625v8.25A1.214 1.214 0 0 1 10.714 12H1.286A1.214 1.214 0 0 1 0 10.875v-8.25A1.214 1.214 0 0 1 1.286 1.5h1.285V.281A.3.3 0 0 1 2.893 0h1.071a.3.3 0 0 1 .321.281V1.5h3.429V.281A.3.3 0 0 1 8.036 0h1.071a.3.3 0 0 1 .321.281V1.5h1.286A1.214 1.214 0 0 1 12 2.625zm-1.286 8.109V3.75H1.286v6.984a.152.152 0 0 0 .161.141h9.107a.152.152 0 0 0 .16-.141z"/>
</svg>
