<svg id="ic_disapproved" xmlns="http://www.w3.org/2000/svg" width="32" height="32" viewBox="0 0 32 32">
  <rect id="Frame" width="32" height="32" fill="#fff" opacity="0"/>
  <g id="Oval" transform="translate(5 5)" fill="rgba(129,36,11,0.5)" stroke="#ff6b44" stroke-width="1">
    <circle cx="11" cy="11" r="11" stroke="none"/>
    <circle cx="11" cy="11" r="10.5" fill="none"/>
  </g>
  <g id="Group_8455" data-name="Group 8455" transform="translate(-1384.743 -486.443)">
    <path id="Union_1" data-name="Union 1" d="M8.442,9.731,5,6.289,1.557,9.731A.912.912,0,0,1,.269,8.441L3.71,5,.266,1.556A.912.912,0,0,1,1.557.268L5,3.71,8.442.268A.912.912,0,0,1,9.732,1.556L6.289,5,9.732,8.443A.912.912,0,1,1,8.442,9.731Z" transform="translate(1395.743 497.443)" fill="#ff6b44" stroke="rgba(0,0,0,0)" stroke-miterlimit="10" stroke-width="1"/>
  </g>
</svg>
