<svg id="ic_forum" xmlns="http://www.w3.org/2000/svg" width="24" height="24" viewBox="0 0 24 24">
  <defs>
    <style>
      .cls-1 {
        fill: rgba(255,255,255,0);
      }

      .cls-2 {
        fill: rgba(255,255,255,0.4);
      }
    </style>
  </defs>
  <rect id="Rectangle_91" data-name="Rectangle 91" class="cls-1" width="24" height="24"/>
  <g id="Group_8378" data-name="Group 8378" transform="translate(-427.255 -816.191)">
    <circle id="Ellipse_32" data-name="Ellipse 32" class="cls-2" cx="3.5" cy="3.5" r="3.5" transform="translate(433.255 820.191)"/>
    <circle id="Ellipse_33" data-name="Ellipse 33" class="cls-2" cx="2.75" cy="2.75" r="2.75" transform="translate(441.255 823.691)"/>
    <path id="Path_392" data-name="Path 392" class="cls-2" d="M436.255,828.191a7.232,7.232,0,0,0-7,7.429c0,.187.007.379.021.571h13.959c.013-.187.02-.379.02-.57A7.232,7.232,0,0,0,436.255,828.191Z"/>
    <path id="Path_393" data-name="Path 393" class="cls-2" d="M443.754,830.191a5.411,5.411,0,0,0-1.517.216,7.623,7.623,0,0,1,2.018,5.214c0,.192-.008.383-.021.57h5.005c.011-.14.016-.284.016-.428A5.544,5.544,0,0,0,443.754,830.191Z"/>
  </g>
</svg>
