<svg id="ic_home" xmlns="http://www.w3.org/2000/svg" width="24" height="24" viewBox="0 0 24 24">
  <defs>
    <style>
      .cls-1 {
        fill: rgba(255,255,255,0);
      }

      .cls-2 {
        fill: rgba(255,255,255,0.4);
      }
    </style>
  </defs>
  <rect id="Rectangle_91" data-name="Rectangle 91" class="cls-1" width="24" height="24"/>
  <path id="Path_395" data-name="Path 395" class="cls-2" d="M446.461,871.858l-7.106-5.487a.915.915,0,0,0-1.089-.022,1.015,1.015,0,0,0-.13.086l-6.915,5.451a.9.9,0,0,0-.346.724v8.662a.911.911,0,0,0,.913.909h3.935a.911.911,0,0,0,.913-.909v-4.036h4.544v4.036a.911.911,0,0,0,.912.909h3.869a.87.87,0,0,0,.184-.019.836.836,0,0,0,.087-.022l.042-.014a.909.909,0,0,0,.6-.807v-8.7A.909.909,0,0,0,446.461,871.858Z" transform="translate(-426.875 -862.18)"/>
</svg>
