<svg xmlns="http://www.w3.org/2000/svg" id="ic_invitation" width="32" height="32" viewBox="0 0 32 32">
    <path id="Rectangle_161" fill="rgba(255,255,255,0)" d="M0 0H32V32H0z" data-name="Rectangle 161"/>
    <path id="envelope-solid" fill="#fff" d="M17.082 69.312a.2.2 0 0 1 .33.16v5.954a1.633 1.633 0 0 1-1.632 1.632H1.632A1.633 1.633 0 0 1 0 75.426v-5.951a.2.2 0 0 1 .33-.16c.762.592 1.772 1.343 5.24 3.863.718.522 1.93 1.622 3.136 1.622 1.214.01 2.448-1.115 3.139-1.619 3.468-2.522 4.475-3.281 5.237-3.869zm-8.376 3.394c.789.014 1.925-.993 2.5-1.408 4.513-3.275 4.856-3.561 5.9-4.377a.814.814 0 0 0 .313-.643v-.646A1.633 1.633 0 0 0 15.779 64H1.632A1.633 1.633 0 0 0 0 65.632v.646a.819.819 0 0 0 .313.643c1.041.813 1.384 1.1 5.9 4.377.568.415 1.704 1.421 2.493 1.408z" transform="translate(7.294 -54.029)"/>
</svg>
