<svg xmlns="http://www.w3.org/2000/svg" id="ic_share" width="32" height="32" viewBox="0 0 32 32">
    <defs>
        <style>
            .cls-2{fill:#fff}
        </style>
    </defs>
    <path id="Rectangle_84" fill="rgba(255,255,255,0)" d="M0 0H32V32H0z" data-name="Rectangle 84"/>
    <g id="Group_8397" data-name="Group 8397" transform="translate(-946.465 -453.288)">
        <path id="Path_407" d="M967.593 466.849h-2.509v1.8h2.509a1.013 1.013 0 0 1 1.025 1v6a1.013 1.013 0 0 1-1.025 1h-10.256a1.013 1.013 0 0 1-1.026-1v-6a1.013 1.013 0 0 1 1.026-1h2.585v-1.8h-2.585a2.84 2.84 0 0 0-2.872 2.8v6a2.841 2.841 0 0 0 2.872 2.8h10.255a2.841 2.841 0 0 0 2.872-2.8v-6a2.84 2.84 0 0 0-2.871-2.8z" class="cls-2" data-name="Path 407" transform="translate(0 -.162)"/>
        <path id="Path_408" d="M959.438 464.354l2.126-2.035v9.442a.94.94 0 0 0 1.879 0v-9.4l2.08 1.99a.967.967 0 0 0 1.325 0 .869.869 0 0 0 0-1.267l-3.672-3.515-.019-.018h-.005a.888.888 0 0 0-.163-.1 1.022 1.022 0 0 0-.121-.077.979.979 0 0 0-.387-.08.955.955 0 0 0-.671.261l-3.7 3.538a.869.869 0 0 0 0 1.267.967.967 0 0 0 1.328-.006z" class="cls-2" data-name="Path 408"/>
    </g>
</svg>
