<svg id="ic_team" xmlns="http://www.w3.org/2000/svg" width="24" height="24" viewBox="0 0 24 24">
  <defs>
    <style>
      .cls-1 {
        fill: rgba(255,255,255,0);
      }

      .cls-2 {
        fill: rgba(255,255,255,0.4);
      }
    </style>
  </defs>
  <rect id="Rectangle_91" data-name="Rectangle 91" class="cls-1" width="24" height="24"/>
  <g id="fist" transform="translate(-39.256 3)">
    <path id="Path_442" data-name="Path 442" class="cls-2" d="M142.347,1.575a.542.542,0,0,0-.157-.756L141.058.087a.542.542,0,0,0-.745.154l-1.4,2.1,2.192,1.1Z" transform="translate(-92.198 0)"/>
    <path id="Path_443" data-name="Path 443" class="cls-2" d="M228.822,55.984l1.026-1.539a.542.542,0,0,0-.156-.756l-1.132-.732a.542.542,0,0,0-.745.154l-1.185,1.777Z" transform="translate(-176.747 -50.96)"/>
    <path id="Path_444" data-name="Path 444" class="cls-2" d="M285.522,109.67l.993.441a.542.542,0,0,0,.671-.195l1.836-2.754a.542.542,0,0,0-.157-.756l-.9-.582a.542.542,0,0,0-.745.154l-1.93,2.894A.542.542,0,0,0,285.522,109.67Z" transform="translate(-233.202 -101.918)"/>
    <path id="Path_445" data-name="Path 445" class="cls-2" d="M371.682,155.106l-.9-.582a.542.542,0,0,0-.745.154l-1.646,2.469a.542.542,0,0,0,.23.8l.993.441a.542.542,0,0,0,.671-.195l1.552-2.329A.541.541,0,0,0,371.682,155.106Z" transform="translate(-313.299 -148.857)"/>
    <path id="Path_446" data-name="Path 446" class="cls-2" d="M56.536,101.612h0a1.618,1.618,0,0,1-.66-.14l-5.065-2.251h-.342l2.277,4.554a.542.542,0,0,1-.266.738.552.552,0,0,1-.71-.267l-2.512-5.025H46.937a.552.552,0,0,1-.557-.516.542.542,0,0,1,.541-.568h3.423A.542.542,0,0,0,50.8,97.9l.332-.5a.542.542,0,0,0-.209-.785L46.535,94.42a.542.542,0,0,0-.693.184l-2.494,3.741a.542.542,0,0,0,.015.623l3.995,5.393a.542.542,0,0,1,.09.454l-.991,3.964a.542.542,0,0,0,.526.673h8.2a.542.542,0,0,0,.542-.542v-2.893a.542.542,0,0,1,.241-.45l.337-.225a3.191,3.191,0,0,0,1.424-2.661V101.1A1.622,1.622,0,0,1,56.536,101.612Z" transform="translate(0 -90.953)"/>
  </g>
</svg>
