<svg xmlns="http://www.w3.org/2000/svg" id="ic_zoomout" width="32" height="32" viewBox="0 0 32 32">
    <defs>
        <style>
            .cls-1{fill:rgba(255,255,255,.4)}
        </style>
    </defs>
    <g id="Group_8364" data-name="Group 8364" transform="translate(-29 -490)">
        <rect id="Rectangle_115" width="32" height="32" class="cls-1" data-name="Rectangle 115" rx="5" transform="translate(29 490)"/>
        <g id="Group_8362" data-name="Group 8362" transform="translate(0 37)">
            <path id="ic_search" d="M-593.327 15.09l-3.144-3.15a6.9 6.9 0 0 0 1.283-4.019A6.914 6.914 0 0 0-602.094 1 6.914 6.914 0 0 0-609 7.921a6.914 6.914 0 0 0 6.906 6.921 6.865 6.865 0 0 0 4.05-1.315l3.138 3.145a1.115 1.115 0 0 0 1.579 0 1.12 1.12 0 0 0 0-1.582zm-8.767-2.472a4.693 4.693 0 0 1-4.687-4.7 4.693 4.693 0 0 1 4.687-4.7 4.693 4.693 0 0 1 4.688 4.7 4.693 4.693 0 0 1-4.688 4.701z" class="cls-1" transform="translate(646 460)"/>
        </g>
    </g>
    <path id="Union_6" d="M2018.9-2831.366h5.2a.9.9 0 0 1 .9.9.9.9 0 0 1-.9.9h-5.2a.9.9 0 0 1-.9-.9.9.9 0 0 1 .9-.9z" class="cls-1" data-name="Union 6" transform="translate(-2006.533 2845.467)"/>
</svg>
