<?xml version="1.0" encoding="utf-8"?>
<!-- Generator: $$$/GeneralStr/196=Adobe Illustrator 27.6.0, SVG Export Plug-In . SVG Version: 6.00 Build 0)  -->
<svg version="1.1" id="_圖層_2" xmlns="http://www.w3.org/2000/svg" xmlns:xlink="http://www.w3.org/1999/xlink" x="0px" y="0px"
	 viewBox="0 0 397.1 400.9" style="enable-background:new 0 0 397.1 400.9;" xml:space="preserve">
<style type="text/css">
	.st0{fill:#FFFFFF;}
	.st1{clip-path:url(#SVGID_00000148627485935465150560000015080769053527795898_);}
	.st2{clip-path:url(#SVGID_00000072960225560217159820000005797053585956790681_);fill:#22223B;}
	.st3{clip-path:url(#SVGID_00000072960225560217159820000005797053585956790681_);fill:#4A4E69;}
</style>
<g id="_圖層_1-2">
	<path class="st0" d="M98.1,0H299c54.2,0,98.1,43.9,98.1,98.1v204.7c0,54.2-43.9,98.1-98.1,98.1H98.1C43.9,400.9,0,357,0,302.8V98.1
		C0,43.9,43.9,0,98.1,0z"/>
</g>
<g id="ZQART_x5F_LOGO_00000176031767940934495200000005083192068792332720_">
	<g>
		<defs>
			<rect id="SVGID_1_" x="104.7" y="109.2" width="187.7" height="182.6"/>
		</defs>
		<clipPath id="SVGID_00000172420105565281182290000006260709481684053430_">
			<use xlink:href="#SVGID_1_"  style="overflow:visible;"/>
		</clipPath>
		<g style="clip-path:url(#SVGID_00000172420105565281182290000006260709481684053430_);">
			<defs>
				<rect id="SVGID_00000013910842074929817600000002175597754075438467_" x="104.7" y="109.2" width="187.7" height="182.6"/>
			</defs>
			<clipPath id="SVGID_00000088816461276642217020000001291407261494872737_">
				<use xlink:href="#SVGID_00000013910842074929817600000002175597754075438467_"  style="overflow:visible;"/>
			</clipPath>
			<path style="clip-path:url(#SVGID_00000088816461276642217020000001291407261494872737_);fill:#22223B;" d="M287.3,109.2
				l-94.7,119.3c-5.7,7.2-0.8,18.1,8.2,18.1h83.3l-35.5,45.2H104.7l94.7-119.3c5.7-7.2,0.8-18.1-8.2-18.1h-82.6l35.5-45.2H287.3z"/>
			<path style="clip-path:url(#SVGID_00000088816461276642217020000001291407261494872737_);fill:#4A4E69;" d="M251.8,210.6
				c22.4,0,40.6,18.2,40.6,40.6c0,22.4-18.2,40.6-40.6,40.6s-40.6-18.2-40.6-40.6C211.2,228.8,229.4,210.6,251.8,210.6"/>
		</g>
	</g>
</g>
</svg>
