<?xml version="1.0" encoding="utf-8"?>
<!-- Generator: $$$/GeneralStr/196=Adobe Illustrator 27.6.0, SVG Export Plug-In . SVG Version: 6.00 Build 0)  -->
<svg version="1.1" id="_圖層_2" xmlns="http://www.w3.org/2000/svg" xmlns:xlink="http://www.w3.org/1999/xlink" x="0px" y="0px"
	 viewBox="0 0 397.1 400.9" style="enable-background:new 0 0 397.1 400.9;" xml:space="preserve">
<style type="text/css">
	.st0{fill:#F1EDEA;}
	.st1{clip-path:url(#SVGID_00000179628335153333876250000005464509752551956897_);}
	.st2{clip-path:url(#SVGID_00000178890253573309533410000004470804794361916595_);fill:#22223B;}
	.st3{clip-path:url(#SVGID_00000178890253573309533410000004470804794361916595_);fill:#4A4E69;}
</style>
<g id="_圖層_1-2">
	<path class="st0" d="M98.1,0H299c54.2,0,98.1,43.9,98.1,98.1v204.7c0,54.2-43.9,98.1-98.1,98.1H98.1C43.9,400.9,0,357,0,302.8V98.1
		C0,43.9,43.9,0,98.1,0z"/>
</g>
<g id="ZQART_x5F_LOGO_00000020366328211639255790000007816175629196607147_">
	<g>
		<defs>
			<rect id="SVGID_1_" x="101.4" y="105.9" width="194.4" height="189.1"/>
		</defs>
		<clipPath id="SVGID_00000042695156447562276060000012649892228296600462_">
			<use xlink:href="#SVGID_1_"  style="overflow:visible;"/>
		</clipPath>
		<g style="clip-path:url(#SVGID_00000042695156447562276060000012649892228296600462_);">
			<defs>
				<rect id="SVGID_00000085248846732443056580000004951141128886456449_" x="101.4" y="105.9" width="194.4" height="189.1"/>
			</defs>
			<clipPath id="SVGID_00000033335661113452562790000005989647882464979333_">
				<use xlink:href="#SVGID_00000085248846732443056580000004951141128886456449_"  style="overflow:visible;"/>
			</clipPath>
			<path style="clip-path:url(#SVGID_00000033335661113452562790000005989647882464979333_);fill:#22223B;" d="M290.5,105.9
				l-98.1,123.5c-5.9,7.5-0.8,18.8,8.5,18.8h86.3L250.4,295H101.4l98.1-123.5c5.9-7.5,0.8-18.8-8.5-18.8h-85.6l36.7-46.8H290.5z"/>
			<path style="clip-path:url(#SVGID_00000033335661113452562790000005989647882464979333_);fill:#4A4E69;" d="M253.7,211
				c23.2,0,42,18.8,42,42c0,23.2-18.8,42-42,42s-42-18.8-42-42C211.7,229.8,230.5,211,253.7,211"/>
		</g>
	</g>
</g>
</svg>
