<svg xmlns="http://www.w3.org/2000/svg" width="36" height="32" viewBox="0 0 36 32">
  <path id="Path_452" data-name="Path 452" d="M988.332,3215.338v11.426H970.641l2.585,3.06,2.357,2.577v4.139a13.984,13.984,0,0,1-3.046.31,5.643,5.643,0,0,1-4.634-1.963,8.814,8.814,0,0,1-1.608-5.707,8.713,8.713,0,0,1,1.777-5.87,6.29,6.29,0,0,1,5.029-2.055c2.369,0,4.867.391,7.008-.1,2.284-.527,5.325-5.814,5.325-5.814h-12.37q-6.844,0-10.641,3.6t-3.8,10.062q0,6.63,3.469,10.208t9.824,3.58a33.516,33.516,0,0,0,10.622-1.607V3232.4h5.793v14.937l2.727-2.758a12.326,12.326,0,0,0,3.566-8.669v-10.243a10.685,10.685,0,0,0-3.69-8.073Z" transform="translate(-958.624 -3215.338)" fill="#fff"/>
</svg>
