<svg xmlns="http://www.w3.org/2000/svg" id="pic_ig" width="49.138" height="50" viewBox="0 0 49.138 50">
    <ellipse id="Ellipse_23" cx="24.569" cy="25" fill="rgba(255,255,255,0.4)" data-name="Ellipse 23" rx="24.569" ry="25"/>
    <path id="instagram-brands" fill="#fff" d="M12.332 37.867a6.359 6.359 0 1 0 6.359 6.359 6.349 6.349 0 0 0-6.359-6.359zm0 10.493a4.134 4.134 0 1 1 4.134-4.134 4.142 4.142 0 0 1-4.134 4.135zm8.1-10.753a1.483 1.483 0 1 1-1.483-1.483 1.48 1.48 0 0 1 1.485 1.483zm4.212 1.505a7.34 7.34 0 0 0-2-5.2 7.388 7.388 0 0 0-5.2-2c-2.048-.116-8.185-.116-10.233 0a7.378 7.378 0 0 0-5.2 2 7.364 7.364 0 0 0-2 5.2C-.1 41.155-.1 47.292.012 49.34a7.34 7.34 0 0 0 2 5.2 7.4 7.4 0 0 0 5.2 2c2.048.116 8.185.116 10.233 0a7.34 7.34 0 0 0 5.2-2 7.388 7.388 0 0 0 2-5.2c.116-2.048.116-8.18 0-10.228zM22 51.537a4.186 4.186 0 0 1-2.357 2.363c-1.633.648-5.507.5-7.311.5s-5.684.144-7.311-.5a4.186 4.186 0 0 1-2.358-2.358c-.648-1.633-.5-5.507-.5-7.311s-.144-5.684.5-7.311a4.186 4.186 0 0 1 2.358-2.358c1.633-.648 5.507-.5 7.311-.5s5.684-.144 7.311.5A4.186 4.186 0 0 1 22 36.915c.648 1.633.5 5.507.5 7.311s.148 5.684-.5 7.311z" transform="translate(12.379 -19.315)"/>
</svg>
