<svg xmlns="http://www.w3.org/2000/svg" id="pic_twitter" width="50" height="50" viewBox="0 0 50 50">
    <circle id="Ellipse_23" cx="25" cy="25" r="25" fill="rgba(255,255,255,0.4)" data-name="Ellipse 23"/>
    <path id="twitter-brands" fill="#fff" d="M22.449 53.146c.016.222.016.445.016.667A14.49 14.49 0 0 1 7.874 68.4 14.491 14.491 0 0 1 0 66.1a10.61 10.61 0 0 0 1.238.063A10.27 10.27 0 0 0 7.6 63.974a5.137 5.137 0 0 1-4.79-3.556 6.468 6.468 0 0 0 .968.079 5.423 5.423 0 0 0 1.349-.175 5.129 5.129 0 0 1-4.111-5.032v-.063a5.164 5.164 0 0 0 2.318.651 5.136 5.136 0 0 1-1.588-6.858 14.576 14.576 0 0 0 10.574 5.365 5.789 5.789 0 0 1-.127-1.175 5.133 5.133 0 0 1 8.874-3.51 10.1 10.1 0 0 0 3.255-1.238 5.114 5.114 0 0 1-2.254 2.826 10.28 10.28 0 0 0 2.952-.788 11.023 11.023 0 0 1-2.571 2.646z" transform="translate(12.965 -33.487)"/>
</svg>
