<svg id="pic_preset_thumbnail" xmlns="http://www.w3.org/2000/svg" xmlns:xlink="http://www.w3.org/1999/xlink" width="60" height="60" viewBox="0 0 60 60">
  <defs>
    <style>
      .cls-1 {
        fill: rgba(147,126,21,0.5);
        stroke: #ffdf41;
      }

      .cls-2 {
        fill: #b3b3b3;
      }

      .cls-3 {
        clip-path: url(#clip-path);
      }

      .cls-4 {
        fill: #fff;
      }

      .cls-5 {
        fill: #ccc;
      }

      .cls-6 {
        fill: #262626;
      }

      .cls-7 {
        fill: none;
        stroke: #262626;
        stroke-linecap: round;
        stroke-width: 2px;
      }

      .cls-8 {
        fill: rgba(26,26,26,0.15);
      }
    </style>
    <clipPath id="clip-path">
      <circle id="Ellipse_46" data-name="Ellipse 46" class="cls-1" cx="30" cy="30" r="30" transform="translate(0 0)"/>
    </clipPath>
  </defs>
  <circle id="Ellipse_45" data-name="Ellipse 45" class="cls-2" cx="30" cy="30" r="30" transform="translate(0 0)"/>
  <g id="Mask_Group_6" data-name="Mask Group 6" class="cls-3" transform="translate(0 0)">
    <g id="GG100" transform="translate(-6.641 63.738)">
      <path id="Path_400" data-name="Path 400" class="cls-4" d="M715.749,450.73a.75.75,0,0,0-.06-.227,1.94,1.94,0,0,0-1.675-2.939H713.8a30.128,30.128,0,0,0-1.328-8.831,16.832,16.832,0,0,0-11.146-28.21v-.043H661.069a16.83,16.83,0,0,0-12.336,28.285,30.134,30.134,0,0,0-1.319,8.8H647.2a1.94,1.94,0,0,0-1.675,2.939.746.746,0,0,0-.06.227c-.021.238-.036.476-.047.715a5.006,5.006,0,0,0,.158,3.515,4.127,4.127,0,0,0,1.019,1.21,3.13,3.13,0,0,0,1.672.658,3.418,3.418,0,0,0,3.094-.926,2.133,2.133,0,0,0,.52-1.21,2.507,2.507,0,0,0,.495-.1,1.575,1.575,0,0,0,.6-.345.977.977,0,0,0,.2-.261,1.158,1.158,0,0,0,.131-.592,2.477,2.477,0,0,0-.321-1c.02.007.044.01.064.017a10.281,10.281,0,0,0-.99-1.287c-.115-.147-.245-.283-.365-.426a1.943,1.943,0,0,0-1.547-3.13h-.275a27.7,27.7,0,0,1,.89-6.945,16.746,16.746,0,0,0,8.908,3.467l.024,0c.221.018.443.033.666.042.134.006.268.007.4.01.1,0,.2.008.306.008h.056a16.805,16.805,0,0,0,11.168-4.293l2.419-2.516v21.449H669.1a1.952,1.952,0,0,0-1.952,1.952v.488a1.464,1.464,0,0,0,1.464,1.464h8.539V437.317H684v25.374h8.539a1.464,1.464,0,0,0,1.464-1.464v-.488a1.952,1.952,0,0,0-1.952-1.952h-5.612v-21.47h.121a16.827,16.827,0,0,0,23.9,3.264,27.7,27.7,0,0,1,.9,6.983h-.274a1.952,1.952,0,0,0-1.952,1.952,1.931,1.931,0,0,0,.4,1.178c-.121.143-.25.28-.365.426-.212.234-.409.481-.6.733a.845.845,0,0,0-.1.128,2.994,2.994,0,0,0-.562,1.412,1.157,1.157,0,0,0,.131.592.974.974,0,0,0,.2.261,1.575,1.575,0,0,0,.6.345,2.507,2.507,0,0,0,.495.1,2.133,2.133,0,0,0,.52,1.21,3.418,3.418,0,0,0,3.094.926,3.129,3.129,0,0,0,1.672-.658,4.136,4.136,0,0,0,1.019-1.21,5.009,5.009,0,0,0,.157-3.515C715.785,451.206,715.77,450.967,715.749,450.73Zm-4.944,3.861-.015.017v-.017a.075.075,0,0,1,.022-.013Z" transform="translate(-644.234 -410.479)"/>
      <path id="Union_5" data-name="Union 5" class="cls-5" d="M667.36,441.666v-2.684h-2.684a2.44,2.44,0,0,1,0-4.88h2.684v-2.684a2.44,2.44,0,1,1,4.88,0V434.1h2.684a2.44,2.44,0,0,1,0,4.88h-2.684v2.684a2.44,2.44,0,1,1-4.88,0Z" transform="translate(-653.452 -419.952)"/>
      <circle id="Ellipse_37" data-name="Ellipse 37" class="cls-5" cx="2.684" cy="2.684" r="2.684" transform="translate(53.676 8.783)"/>
      <circle id="Ellipse_38" data-name="Ellipse 38" class="cls-5" cx="2.684" cy="2.684" r="2.684" transform="translate(53.676 19.03)"/>
      <circle id="Ellipse_39" data-name="Ellipse 39" class="cls-5" cx="2.684" cy="2.684" r="2.684" transform="translate(58.556 14.151)"/>
      <circle id="Ellipse_40" data-name="Ellipse 40" class="cls-5" cx="2.684" cy="2.684" r="2.684" transform="translate(48.797 14.151)"/>
      <circle id="Ellipse_41" data-name="Ellipse 41" class="cls-6" cx="1.464" cy="1.464" r="1.464" transform="translate(28.302 10.247)"/>
      <circle id="Ellipse_42" data-name="Ellipse 42" class="cls-6" cx="1.464" cy="1.464" r="1.464" transform="translate(40.989 10.247)"/>
      <path id="Path_400-2" data-name="Path 400" class="cls-7" d="M711.922,441.479h5.949" transform="translate(-678.893 -426.352)"/>
      <path id="Path_402" data-name="Path 402" class="cls-5" d="M778.174,486.479H777.9a1.952,1.952,0,0,0-1.952,1.952,1.931,1.931,0,0,0,.4,1.178c-.121.143-.25.28-.365.426-.212.234-.409.481-.6.733a.844.844,0,0,0-.1.128,2.994,2.994,0,0,0-.562,1.412,1.157,1.157,0,0,0,.131.592.977.977,0,0,0,.2.261,1.575,1.575,0,0,0,.6.344,2.507,2.507,0,0,0,.495.1,2.133,2.133,0,0,0,.52,1.21,3.418,3.418,0,0,0,3.094.926,3.129,3.129,0,0,0,1.672-.658,4.136,4.136,0,0,0,1.019-1.21,5.009,5.009,0,0,0,.157-3.515c-.011-.239-.026-.477-.047-.715a.75.75,0,0,0-.06-.227,1.94,1.94,0,0,0-1.675-2.939h-.215" transform="translate(-711.048 -449.394)"/>
      <path id="Path_403" data-name="Path 403" class="cls-5" d="M780.646,500.866l-.015.017v-.017a.075.075,0,0,1,.022-.013Z" transform="translate(-714.074 -456.754)"/>
      <path id="Path_404" data-name="Path 404" class="cls-5" d="M650.86,486.467h.274a1.943,1.943,0,0,1,1.547,3.13c.12.143.25.28.365.426.213.234.409.481.6.733a.794.794,0,0,1,.1.128,2.99,2.99,0,0,1,.563,1.412,1.167,1.167,0,0,1-.131.592.966.966,0,0,1-.2.261,1.57,1.57,0,0,1-.6.345,2.516,2.516,0,0,1-.495.1,2.132,2.132,0,0,1-.52,1.21,3.418,3.418,0,0,1-3.094.926,3.127,3.127,0,0,1-1.672-.658,4.128,4.128,0,0,1-1.019-1.21,5.009,5.009,0,0,1-.158-3.515c.011-.239.026-.477.047-.715a.721.721,0,0,1,.06-.227,1.93,1.93,0,0,1-.277-.987,1.952,1.952,0,0,1,1.952-1.952h.214" transform="translate(-645.233 -449.388)"/>
      <path id="Path_405" data-name="Path 405" class="cls-5" d="M733.787,509.464h-5.612v-.015h-2.44v3.918h8.539a1.464,1.464,0,0,0,1.464-1.464v-.488A1.952,1.952,0,0,0,733.787,509.464Z" transform="translate(-685.966 -461.156)"/>
      <path id="Path_406" data-name="Path 406" class="cls-5" d="M693.145,509.464h5.611v-.015h2.44v3.918h-8.539a1.464,1.464,0,0,1-1.464-1.464v-.488A1.952,1.952,0,0,1,693.145,509.464Z" transform="translate(-668.279 -461.156)"/>
    </g>
  </g>
  <path id="Path_451" data-name="Path 451" class="cls-8" d="M988.332,3215.338V3226.8H970.641l2.585,3.069,2.357,2.585v4.151a13.954,13.954,0,0,1-3.046.311,5.636,5.636,0,0,1-4.635-1.969,8.862,8.862,0,0,1-1.608-5.724,8.758,8.758,0,0,1,1.777-5.889,6.281,6.281,0,0,1,5.029-2.06c2.369,0,4.867.392,7.008-.1,2.284-.528,5.325-5.832,5.325-5.832h-12.37q-6.844,0-10.642,3.609t-3.8,10.093q0,6.649,3.469,10.239t9.824,3.59a33.406,33.406,0,0,0,10.623-1.612v-8.8h5.793v14.983l2.727-2.766a12.387,12.387,0,0,0,3.566-8.7V3225.7a10.731,10.731,0,0,0-3.689-8.1Z" transform="translate(-946.624 -3199.338)"/>
</svg>
