<svg xmlns="http://www.w3.org/2000/svg" id="pic_reddit" width="50" height="50" viewBox="0 0 50 50">
    <circle id="Ellipse_23" cx="25" cy="25" r="25" fill="rgba(255,255,255,0.4)" data-name="Ellipse 23"/>
    <path id="reddit-alien-brands" fill="#fff" d="M40.983 40.949a2.808 2.808 0 0 0-2 .838 13.554 13.554 0 0 0-7.23-2.231l1.461-6.581 4.651 1.044a2.071 2.071 0 0 0 2.067 2.067 2.094 2.094 0 1 0-1.862-3.027l-5.136-1.139a.491.491 0 0 0-.58.374l-1.6 7.256a13.723 13.723 0 0 0-7.188 2.257 2.781 2.781 0 1 0-3.233 4.419 5.9 5.9 0 0 0-.137 1.3c0 4.419 4.978 8 11.09 8 6.138 0 11.117-3.581 11.117-8a5.031 5.031 0 0 0-.163-1.324 2.776 2.776 0 0 0-1.257-5.253zm-16.4 5.558a2.08 2.08 0 1 1 2.094 2.067 2.085 2.085 0 0 1-2.089-2.066zm11.3 4.931c-1.92 1.92-7.335 1.92-9.255 0a.491.491 0 0 1 0-.722.507.507 0 0 1 .7 0c1.466 1.5 6.328 1.529 7.858 0a.507.507 0 0 1 .7 0 .487.487 0 0 1 .003.722zm-.042-2.858a2.08 2.08 0 1 1 2.094-2.067 2.071 2.071 0 0 1-2.088 2.067z" transform="translate(-6.243 -19.39)"/>
</svg>
