<svg xmlns="http://www.w3.org/2000/svg" id="pic_link" width="50" height="50" viewBox="0 0 50 50">
    <circle id="Ellipse_21" cx="25" cy="25" r="25" fill="rgba(255,255,255,0.4)" data-name="Ellipse 21"/>
    <path id="link-solid" fill="#fff" d="M15.96 9.059a7.424 7.424 0 0 1 .018 10.487l-.018.018-3.284 3.284a7.428 7.428 0 0 1-10.5-10.5l1.809-1.818a.781.781 0 0 1 1.334.518 9 9 0 0 0 .474 2.576.787.787 0 0 1-.185.812l-.64.64a3.519 3.519 0 1 0 4.944 5.008L13.2 16.8a3.518 3.518 0 0 0 0-4.976 3.66 3.66 0 0 0-.505-.419.784.784 0 0 1-.339-.616 1.947 1.947 0 0 1 .572-1.457L13.952 8.3a.785.785 0 0 1 1.006-.085 7.451 7.451 0 0 1 1.002.844zm6.887-6.888a7.436 7.436 0 0 0-10.5 0L9.059 5.456l-.018.018A7.429 7.429 0 0 0 10.062 16.8a.785.785 0 0 0 1.006-.085l1.032-1.028a1.947 1.947 0 0 0 .572-1.457.784.784 0 0 0-.339-.616 3.661 3.661 0 0 1-.505-.419 3.518 3.518 0 0 1 0-4.976l3.284-3.283a3.519 3.519 0 1 1 4.944 5.008l-.64.64a.786.786 0 0 0-.185.812 9 9 0 0 1 .474 2.576.781.781 0 0 0 1.334.518l1.813-1.813a7.436 7.436 0 0 0 0-10.5z" transform="translate(12.47 12.511)"/>
</svg>
