<svg xmlns="http://www.w3.org/2000/svg" id="pic_nocontent" width="375" height="288" viewBox="0 0 375 288">
    <defs>
        <style>
            .cls-5{fill:#ccc}.cls-6{fill:#262626}
        </style>
    </defs>
    <path id="Rectangle_102" fill="rgba(255,255,255,0)" d="M0 0H375V288H0z" data-name="Rectangle 102"/>
    <g id="Group_8385" data-name="Group 8385" transform="translate(136 80.49)">
        <text id="很抱歉_沒有內容" fill="rgba(255,255,255,0.4)" data-name="很抱歉，沒有內容" font-family="PingFang-TC-Regular, PingFang TC" font-size="13px" transform="translate(52 123.057)">
            <tspan x="-52" y="0">很抱歉，沒有內容</tspan>
        </text>
        <g id="GG50" transform="translate(0 .51)">
            <g id="Group_8416" data-name="Group 8416" opacity="0.5" transform="translate(0 -1)">
                <path id="Path_400" fill="#fff" d="M745.547 467.5a1.061 1.061 0 0 0-.086-.322 2.748 2.748 0 0 0-2.373-4.163h-.3a42.682 42.682 0 0 0-1.881-12.511 23.845 23.845 0 0 0-15.789-39.965v-.062h-57.03a23.843 23.843 0 0 0-17.475 40.07 42.689 42.689 0 0 0-1.869 12.467h-.3a2.748 2.748 0 0 0-2.373 4.163 1.059 1.059 0 0 0-.086.322c-.03.337-.051.675-.066 1.013a7.093 7.093 0 0 0 .223 4.979 5.846 5.846 0 0 0 1.443 1.714 4.433 4.433 0 0 0 2.369.932 4.842 4.842 0 0 0 4.383-1.312 3.021 3.021 0 0 0 .736-1.714 3.551 3.551 0 0 0 .7-.142 2.231 2.231 0 0 0 .856-.488 1.382 1.382 0 0 0 .277-.37 1.64 1.64 0 0 0 .185-.839 3.509 3.509 0 0 0-.454-1.421c.029.01.062.014.091.024a14.569 14.569 0 0 0-1.4-1.824c-.163-.208-.347-.4-.517-.6a2.752 2.752 0 0 0-2.191-4.434h-.389a39.241 39.241 0 0 1 1.261-9.839 23.724 23.724 0 0 0 12.62 4.912h.035c.313.025.627.047.944.06.189.008.38.01.571.015.144 0 .288.011.433.011h.081a23.807 23.807 0 0 0 15.822-6.081l3.427-3.564v30.386h-7.95a2.765 2.765 0 0 0-2.765 2.765v.691a2.074 2.074 0 0 0 2.074 2.074h12.1V448.5h9.708v35.946h12.1a2.074 2.074 0 0 0 2.074-2.074v-.691a2.765 2.765 0 0 0-2.765-2.765h-7.95V448.5h.172a23.838 23.838 0 0 0 33.852 4.625 39.242 39.242 0 0 1 1.273 9.892h-.388a2.765 2.765 0 0 0-2.765 2.765 2.735 2.735 0 0 0 .574 1.669c-.171.2-.355.4-.518.6-.3.331-.579.681-.848 1.038a1.2 1.2 0 0 0-.147.182 4.242 4.242 0 0 0-.8 2 1.64 1.64 0 0 0 .185.839 1.382 1.382 0 0 0 .277.37 2.231 2.231 0 0 0 .856.488 3.551 3.551 0 0 0 .7.142 3.021 3.021 0 0 0 .736 1.714 4.842 4.842 0 0 0 4.383 1.312 4.433 4.433 0 0 0 2.369-.932 5.858 5.858 0 0 0 1.444-1.714 7.1 7.1 0 0 0 .223-4.979c-.029-.335-.053-.673-.082-1.011zm-7 5.47l-.021.023v-.023a.105.105 0 0 1 .032-.019z" data-name="Path 400" transform="translate(-644.234 -388.272)"/>
                <path id="Union_5" d="M669.494 446.952v-3.8h-3.8a3.456 3.456 0 0 1 0-6.913h3.8v-3.8a3.456 3.456 0 0 1 6.913 0v3.8h3.8a3.456 3.456 0 0 1 0 6.913h-3.8v3.8a3.456 3.456 0 1 1-6.913 0z" class="cls-5" data-name="Union 5" transform="translate(-649.792 -393.983)"/>
                <circle id="Ellipse_37" cx="3.802" cy="3.802" r="3.802" class="cls-5" data-name="Ellipse 37" transform="translate(76.041 34.65)"/>
                <circle id="Ellipse_38" cx="3.802" cy="3.802" r="3.802" class="cls-5" data-name="Ellipse 38" transform="translate(76.041 49.167)"/>
                <circle id="Ellipse_39" cx="3.802" cy="3.802" r="3.802" class="cls-5" data-name="Ellipse 39" transform="translate(82.954 42.254)"/>
                <circle id="Ellipse_40" cx="3.802" cy="3.802" r="3.802" class="cls-5" data-name="Ellipse 40" transform="translate(69.129 42.254)"/>
                <circle id="Ellipse_41" cx="2.074" cy="2.074" r="2.074" class="cls-6" data-name="Ellipse 41" transform="translate(40.095 36.724)"/>
                <circle id="Ellipse_42" cx="2.074" cy="2.074" r="2.074" class="cls-6" data-name="Ellipse 42" transform="translate(58.068 36.724)"/>
                <path id="Path_400-2" fill="none" stroke="#262626" stroke-linecap="round" stroke-width="2px" d="M711.922 441.479h8.427" data-name="Path 400" transform="translate(-665.131 -397.842)"/>
                <path id="Path_401" d="M724.155 387.743l-6.922 5.659a.958.958 0 0 1-1.513-.435l-3.551-10.512a.957.957 0 0 0-1.814 0L706.8 392.99a.958.958 0 0 1-1.513.435l-6.95-5.682a.957.957 0 0 0-1.51 1.056l5.271 15.138a.139.139 0 0 0 .133.094h18.034a.139.139 0 0 0 .133-.094l5.272-15.138a.958.958 0 0 0-1.515-1.056z" class="cls-5" data-name="Path 401" transform="translate(-660.452 -380.804)"/>
                <path id="Path_402" d="M779.613 486.479h-.388a2.765 2.765 0 0 0-2.765 2.765 2.735 2.735 0 0 0 .574 1.669c-.171.2-.355.4-.518.6-.3.331-.579.681-.848 1.038a1.2 1.2 0 0 0-.147.182 4.242 4.242 0 0 0-.8 2 1.64 1.64 0 0 0 .185.839 1.382 1.382 0 0 0 .277.37 2.231 2.231 0 0 0 .856.488 3.551 3.551 0 0 0 .7.142 3.021 3.021 0 0 0 .736 1.714 4.842 4.842 0 0 0 4.383 1.312 4.433 4.433 0 0 0 2.369-.932 5.858 5.858 0 0 0 1.444-1.714 7.1 7.1 0 0 0 .223-4.979c-.015-.338-.037-.676-.066-1.013a1.061 1.061 0 0 0-.086-.322 2.748 2.748 0 0 0-2.373-4.163h-.3" class="cls-5" data-name="Path 402" transform="translate(-684.518 -411.735)"/>
                <path id="Path_403" d="M780.652 500.872l-.021.023v-.023a.106.106 0 0 1 .032-.019z" class="cls-5" data-name="Path 403" transform="translate(-686.343 -416.172)"/>
                <path id="Path_404" d="M652.809 486.467h.388a2.752 2.752 0 0 1 2.191 4.434c.17.2.354.4.517.6.3.331.58.681.848 1.038a1.121 1.121 0 0 1 .147.182 4.236 4.236 0 0 1 .8 2 1.654 1.654 0 0 1-.185.839 1.37 1.37 0 0 1-.278.37 2.223 2.223 0 0 1-.855.488 3.564 3.564 0 0 1-.7.142 3.021 3.021 0 0 1-.736 1.714 4.843 4.843 0 0 1-4.383 1.312 4.431 4.431 0 0 1-2.368-.932 5.848 5.848 0 0 1-1.444-1.714 7.1 7.1 0 0 1-.223-4.979c.016-.338.037-.676.067-1.013a1.024 1.024 0 0 1 .086-.322 2.735 2.735 0 0 1-.392-1.4 2.765 2.765 0 0 1 2.765-2.765h.3" class="cls-5" data-name="Path 404" transform="translate(-644.836 -411.731)"/>
                <path id="Path_405" d="M737.142 509.47h-7.95v-.021h-3.456V515h12.1a2.074 2.074 0 0 0 2.074-2.074v-.691a2.765 2.765 0 0 0-2.768-2.765z" class="cls-5" data-name="Path 405" transform="translate(-669.396 -418.826)"/>
                <path id="Path_406" d="M693.958 509.47h7.95v-.021h3.456V515h-12.1a2.074 2.074 0 0 1-2.074-2.074v-.691a2.765 2.765 0 0 1 2.768-2.765z" class="cls-5" data-name="Path 406" transform="translate(-658.731 -418.826)"/>
            </g>
        </g>
    </g>
</svg>
