<svg xmlns="http://www.w3.org/2000/svg" width="247" height="225.364" viewBox="0 0 247 225.364">
    <defs>
        <style>
            .cls-3{fill:#ccc}
        </style>
    </defs>
    <g id="pic_background_deco" transform="translate(.5 .715)">
        <g id="pic_background_deco-2" data-name="pic_background_deco" opacity="0.1">
            <g id="Group_6" data-name="Group 6">
                <g id="Group_5" data-name="Group 5">
                    <path id="Union_3" fill="#ccc" stroke="rgba(0,0,0,0)" stroke-miterlimit="10" d="M203 217.7l19.712-54.784.008-.009-19.72-11.37v-32.619h-39.574l-.008-.006.008.006v61.165l-.008-.005v.005q-33.018 11.2-72.587 11.2-43.43 0-67.13-24.948T0 95.192a125.514 125.514 0 0 1 3.123-28.834l1.57-5.858a80.73 80.73 0 0 1 21.256-35.425Q51.9 0 98.672 0h19.338l11.821 2.13v-.009L118.044 0h23.616l-11.829 2.13L141.669 0H183.2s-20.773 36.845-36.387 40.519c-14.629 3.445-31.7.713-47.885.713q-22.237 0-34.367 14.324-12.145 14.307-12.145 40.918 0 26.081 10.989 39.764a34.884 34.884 0 0 0 7.561 7.043l-34.019 19.627.008.009 34.019-19.627q1.231.842 2.538 1.576a56.436 56.436 0 0 0 14.147 4.571 55.139 55.139 0 0 0 7.414.48 93.252 93.252 0 0 0 20.807-2.164V118.91l-16.105-17.956L82.116 79.63h.015l-.015-.017.048.017h120.81l.03-.009V0l17.786 15.724a74.644 74.644 0 0 1 20.289 29.411l-18.355 10.582v.008l18.355-10.59A75.492 75.492 0 0 1 246 71.984v11.252l-.6-.713.6.713v60.147a86.819 86.819 0 0 1-24.362 60.417L203 223.021zM36.938 55.725v-.008h-.017zM203 151.546l19.712 11.371L203 217.683z" data-name="Union 3" transform="translate(0 .395)"/>
                    <path id="Path_52" d="M526.909 348.111l-19.946-19.946H386.052l55.969 19.946s84.888-.491 84.888 0z" class="cls-3" data-name="Path 52" transform="translate(-303.935 -248.157)"/>
                    <path id="Path_54" d="M458.978 389.4l25.336 15.484s-28.707 11.2-72.587 11.2-64.277-22.639-64.277-22.639l20.762-11.209s20.579 13.964 43.362 13.964 47.404-6.8 47.404-6.8z" class="cls-3" data-name="Path 54" transform="translate(-320.892 -224.405)"/>
                    <path id="Path_57" d="M368.417 413.278s-19.844-22.231-21.317-52.548 10.937-49.163 10.937-49.163l20.485 11.133s-8.069 22.286-3.675 42.26c6.064 27.561 17.394 34.543 17.394 34.543z" class="cls-3" data-name="Path 57" transform="translate(-321.097 -255.448)"/>
                    <path id="Path_59" d="M354.666 322.66s16.414-27.752 39.591-33.519c39.135-9.738 45.383 8.636 60.45 11.023s21.864-.367 21.864-.367-7.533 7.717-16.352 8.635-13.781.735-43.914-.367c-17.657-.647-33.807 8.635-41.158 25.722-12.494-6.614-20.481-11.127-20.481-11.127z" class="cls-3" data-name="Path 59" transform="translate(-317.722 -266.54)"/>
                    <path id="Path_61" d="M398.513 292.543s27.93 0 46.548-6.368 36.6-13.322 36.6-13.322-20.247 37.093-36.386 40.519-46.762-20.829-46.762-20.829z" class="cls-3" data-name="Path 61" transform="translate(-298.461 -272.455)"/>
                    <path id="Path_62" d="M497.995 272.98s-50.32 24.958-83.147 19.69c-32.35-5.19-54.632 24.744-54.632 24.744s9.311-39.933 31.359-42.627 106.42-1.807 106.42-1.807z" class="cls-3" data-name="Path 62" transform="translate(-315.285 -272.46)"/>
                    <path id="Path_63" d="M354.666 312.937l31.873-4.489s-8.391 8.269-11.33 15.984-20.543-11.495-20.543-11.495z" class="cls-3" data-name="Path 63" transform="translate(-317.722 -256.818)"/>
                    <path id="Path_64" d="M376.287 399.75l-47.22-57.386s1.611 31.49 10.656 48.139c8.452 15.556 15.8 20.457 15.8 20.457z" class="cls-3" data-name="Path 64" transform="translate(-328.967 -241.92)"/>
                    <path id="Path_65" d="M358.062 311.567l15.337 38.69-4.962 63.022S349.39 389.454 347.185 363s10.877-51.433 10.877-51.433z" class="cls-3" data-name="Path 65" transform="translate(-321.118 -255.448)"/>
                    <path id="Path_66" d="M376.287 413.278l-47.22-57.387 36.844-44.324s-13.082 20.071-9.9 47.754 20.276 53.957 20.276 53.957z" class="cls-3" data-name="Path 66" transform="translate(-328.967 -255.448)"/>
                    <path id="Path_67" d="M372.362 383.824L338 378.618s6.614 11.147 13.228 16.66 21.134-11.454 21.134-11.454z" class="cls-3" data-name="Path 67" transform="translate(-325.042 -225.994)"/>
                    <path id="Path_68" d="M490.861 272.909s-37.58 16.323-58.894 19.079-34.725-19.477-49.977-17.089 12.679-1.654 27.194-2.021 81.677.031 81.677.031z" class="cls-3" data-name="Path 68" transform="translate(-307.661 -272.511)"/>
                    <path id="Path_69" d="M394.343 286.74s7.1-1.347 24.375-.244 23.028 13.475 32.952 12.984 8.82-.612 8.82-.612-6.737 7.716-15.8 9.31c-9.189 1.613-32.339-9.065-32.339-9.065z" class="cls-3" data-name="Path 69" transform="translate(-300.293 -266.652)"/>
                    <path id="Path_70" d="M411.7 286.363l27.776 21.072s1.744-.127 6.645-3.065 6.737-5.635 6.737-5.635l-27.802-11.025z" class="cls-3" data-name="Path 70" transform="translate(-292.666 -266.52)"/>
                    <path id="Path_71" d="M430.85 292.42l11.576-19.844s-31.786.182-43.914.734-31.787 7.166-31.787 7.166z" class="cls-3" data-name="Path 71" transform="translate(-312.424 -272.576)"/>
                    <path id="Path_72" d="M436.148 290.008l-64.124-11.943-17.358 48.219s10.683-20.107 28.812-26.477 52.67-9.799 52.67-9.799z" class="cls-3" data-name="Path 72" transform="translate(-317.722 -270.165)"/>
                    <path id="Path_73" d="M436.94 387.214l25.336 15.486s-32.135 10.423-64.656 10.974" class="cls-3" data-name="Path 73" transform="translate(-298.853 -222.218)"/>
                    <path id="Path_75" d="M368.212 382.235l10.474 29.337a66.206 66.206 0 0 1-18.743-7.962c-9.676-6-12.493-10.165-12.493-10.165z" class="cls-3" data-name="Path 75" transform="translate(-320.892 -224.405)"/>
                </g>
                <path id="Path_76" d="M378.276 323.063l-20.543-11.5s-14.062 23.5-8.917 52.653a132.185 132.185 0 0 0 19.292 49.058l17.945-20.15s-8.207-9.187-12-31.113c-3.371-19.44 4.223-38.948 4.223-38.948z" class="cls-3" data-name="Path 76" transform="translate(-320.789 -255.448)"/>
            </g>
        </g>
    </g>
</svg>
